<svg version="1.2" xmlns="http://www.w3.org/2000/svg" viewBox="0 0 963 680" width="963" height="680">
	<title>2650148-ai</title>
	<style>
		.s0 { fill: #adbec4 } 
		.s1 { fill: #0e3944 } 
		.s2 { fill: #ef6e4b } 
		.s3 { fill: #ff8b66 } 
		.s4 { fill: #164353 } 
		.s5 { fill: #cfd8dc } 
		.s6 { fill: #db614d } 
		.s7 { fill: #1a4850 } 
		.s8 { fill: #6097b2 } 
		.s9 { fill: #205260 } 
		.s10 { fill: #8b383e } 
		.s11 { fill: #662c33 } 
		.s12 { fill: #ce364c } 
		.s13 { fill: #f24052 } 
		.s14 { fill: #a02e44 } 
		.s15 { fill: #ffb878 } 
		.s16 { fill: #0c476b } 
		.s17 { fill: #105e99 } 
		.s18 { fill: #225866 } 
		.s19 { fill: #8bbddb } 
		.s20 { fill: #3e6575 } 
	</style>
	<g id="OBJECTS">
		<g id="&lt;Group&gt;">
			<rect id="&lt;Path&gt;" class="s0" x="87.9" y="647.7" width="117.2" height="8.9" rx="3.5"></rect>
			<rect id="&lt;Path&gt;" class="s0" x="866.2" y="647.7" width="37.2" height="8.9" rx="3.5"></rect>
			<rect id="&lt;Path&gt;" class="s0" x="295.3" y="647.7" width="117.2" height="8.9" rx="3.5"></rect>
			<rect id="&lt;Path&gt;" class="s0" x="457.1" y="647.7" width="117.2" height="8.9" rx="3.5"></rect>
			<rect id="&lt;Path&gt;" class="s0" x="615.2" y="647.7" width="157.2" height="8.9" rx="3.5"></rect>
		</g>
		<g id="&lt;Group&gt;">
			<path id="&lt;Path&gt;" class="s1" d="m258.1 195.5q2.4 41.4-29.4 99.1-42.6 6.6-54.7-10.5 23.4-63.6 19.2-82.2c-4.2-18.6-0.4-41.5 16.6-47.6q17.1-6.1 28.7 1.8 17.2-2 19.6 39.4z"/>
			<path id="&lt;Path&gt;" class="s2" d="m252 227.7c16-5.1 25.7 8.2 34.9 33q9.2 24.8 12.3 27.3l35.3 22.7-2.9 13.3q-33.7-13.2-41.8-21.6-8.2-8.4-31.6-50.9z"/>
			<path id="&lt;Path&gt;" class="s3" d="m228.5 391.6c-1.5 80.7-28.8 88.8-36.2 115.3q-7.4 26.6-17.1 124.5h-11.8q-22.6-115.1 4.8-155.4-1.2-53 5.8-88.1z"/>
			<path id="&lt;Path&gt;" class="s3" d="m106.8 491.3c-13.2 0-25-8.1-29.9-20.3q-14.5-36.3-37.2-85.9 0-2.8 3.8-5.1 3.7-2.3 6.4-0.9c45.4 51.5 63.1 89.5 69.9 112.2z"/>
			<path id="&lt;Path&gt;" class="s4" d="m202.4 535.1q0.2 16.9-10.9 17.2c-15.7 0.4-16.3-16.6-34-16.1-17.8 0.6-54.4 5-66.1-22.7-6-14.4 2.2-32.8-17.2-46.7-19.4-13.8-10-29.4 0-37.7 10-8.3-4.3-17.4 6.1-21.7 2.5-1 4.9-0.9 7.2-0.1q2 0.7 3.8 1.9 5.5 3.7 9.4 10 29.4-80.5 81.8-91.2l51.8 17.9q1.2 125.4-31.9 189.2z"/>
			<path id="&lt;Path&gt;" class="s5" d="m249.4 313.1l-15.1 32.8q-27.7 0.9-51.8-17.9c4.1-15.1 1.9-33.3 0.2-40.3-4.5-18.7-13-54.6 5.1-65 12.1-6.9 17.7 3.8 34.9 6.5q17.2 2.6 29.3-1.5 30.2 46.1-2.6 85.4z"/>
			<path id="&lt;Path&gt;" class="s2" d="m244.9 201.4q-9.6 17.6-10.4 33.1-8.5 8.8-17.5-4.5 6.3-15.4 4.3-32.4 30.1-8 23.6 3.8z"/>
			<g id="&lt;Group&gt;">
				<path id="&lt;Path&gt;" class="s3" d="m211 208c-0.9 3-9.2 1.3-10.2-7.2q-0.9-7.4 6.7-2.6 4.4 6.8 3.5 9.8z"/>
				<path id="&lt;Path&gt;" class="s3" d="m250.9 188.9q4.8-7.6 7.2-0.5c2.7 8.1-4.1 13.2-6.2 10.9q-2-2.3-1-10.4z"/>
				<path id="&lt;Path&gt;" class="s3" d="m235.3 223.7c-13.7 3.1-23.5-4.1-29.5-31-3.1-13.9 2-24 17.4-27.4 15.4-3.4 23.8 3.6 26.9 17.5 6.4 28.9-0.6 37.8-14.8 40.9z"/>
				<path id="&lt;Path&gt;" class="s6" d="m247.7 193.4c0.5 1.3-0.4 2.9-2 3.6-1.7 0.7-3.5 0.2-4-1.1-0.6-1.4 0.3-3 2-3.7 1.6-0.7 3.4-0.1 4 1.2z"/>
				<path id="&lt;Path&gt;" class="s6" d="m219.6 200.5c0.2 1.4-1 2.7-2.8 3-1.8 0.3-3.4-0.6-3.6-2-0.2-1.5 1-2.8 2.8-3.1 1.8-0.3 3.4 0.6 3.6 2.1z"/>
				<g id="&lt;Group&gt;">
					<path id="&lt;Path&gt;" class="s1" d="m238.1 180.9q-0.2 0-0.4-0.2c-2.3-1.5-5.6-0.7-5.7-0.7-0.4 0.1-0.7-0.1-0.8-0.5-0.1-0.4 0.1-0.8 0.5-0.8 0.1-0.1 3.9-1 6.8 0.9 0.3 0.2 0.4 0.6 0.2 0.9-0.1 0.2-0.4 0.4-0.6 0.4z"/>
				</g>
				<g id="&lt;Group&gt;">
					<path id="&lt;Path&gt;" class="s1" d="m212.3 186.6q-0.2 0-0.4-0.1c-0.3-0.2-0.4-0.6-0.2-0.9 1.7-3 5.6-3.7 5.8-3.8 0.3 0 0.7 0.2 0.8 0.6 0.1 0.4-0.2 0.7-0.6 0.8 0 0-3.4 0.7-4.8 3.1-0.2 0.2-0.4 0.3-0.6 0.3z"/>
				</g>
				<path id="&lt;Path&gt;" class="s7" d="m238.7 188.4c0.4 1.7-0.1 3.2-1 3.5-1 0.2-2-1-2.4-2.7-0.4-1.7 0.1-3.3 1-3.5 1-0.2 2 1 2.4 2.7z"/>
				<path id="&lt;Path&gt;" class="s7" d="m219.6 192.5c0.4 1.7 0 3.2-1 3.5-0.9 0.2-2-1-2.4-2.7-0.4-1.7 0.1-3.3 1-3.5 1-0.2 2.1 1 2.4 2.7z"/>
				<path id="&lt;Path&gt;" class="s7" d="m225.8 208.6q8.8-0.7 12.7-4-1.1 6.9-5.9 7.4-4.7 0.5-6.8-3.4z"/>
				<path id="&lt;Path&gt;" class="s7" d="m235.8 183.2q1.6-0.4 3.7 3.1l2.4-0.9-2.2 1.9q-2-3.3-3.8-3.3-1.7 0.1-2 4.6-0.5-4.9 1.9-5.4z"/>
				<path id="&lt;Path&gt;" class="s7" d="m220.7 192.1q-2.2-3.9-3.8-3.3-1.5 0.7-2 4.6l-2.7-0.8 2.5-0.2q0.4-4 2-4.4 2.4-0.5 4 4.1z"/>
				<g id="&lt;Group&gt;">
					<path id="&lt;Path&gt;" class="s6" d="m230.3 200.7l-0.7-1.4c1.1-0.6 1.2-1.4 1.1-1.9-0.2-0.9-0.9-1.5-1.3-1.5q-0.4-0.1-0.7 0.7l-1.4-0.6c0.6-1.6 1.7-1.7 2.2-1.7 1.2 0.1 2.4 1.3 2.7 2.7 0.3 1.5-0.4 2.9-1.9 3.7z"/>
				</g>
				<path id="&lt;Path&gt;" class="s1" d="m222.4 159.1c15-2.5 26 5.1 28.2 17.5q2.3 12.3 1.5 17.8-3.4-15.4-10.2-26.4-23.1-8.2-35 8.4-2.5 11 1.7 26.6c-17.2-26.6-1.2-41.5 13.8-43.9z"/>
			</g>
			<path id="&lt;Path&gt;" class="s1" d="m232.8 164.6q0.9 4-3.1 14.5-2.8-3-6.2 0c-3.3 3-10.1 2-12.4 3.6q-2.3 1.6-2.3 5.2-2-4.5 0-10-4.5 5.7-3.9 12.8-6.1-1-5.8-11.1c0.3-10 14.6-26.3 30.6-25.2q16 1 19.9 26.4-1.5-1.2-3.8-0.6-0.3-5.4-3.9-12.2 1.6 4.9 0 10.2-4.5-2.4-8-1.6 2.1-4.3-1.1-12z"/>
			<path id="&lt;Path&gt;" class="s3" d="m183.7 225.9c7.8-6.1 13.9 1.7 15.4 12.5 1.5 10.8-12.6 74.7-23.5 72.3q-4.2-0.9-5.9-17.6 4.3-18 7-45c1.3-12.4 3-19 7-22.2z"/>
			<path id="&lt;Path&gt;" class="s3" d="m161 301.7c-10.5-10-29.3-43.2-34.1-60.2l8-3.2q24 34.4 34.9 43c11 8.7 14.8 18.3 9.9 26.6-4.8 8.3-16.5-4.1-18.7-6.2z"/>
			<g id="&lt;Group&gt;">
				<path id="&lt;Path&gt;" class="s3" d="m130.2 219.4c-0.6 10.9 8.3 13.4 4.4 21.8-0.8 1.7-2.1 2.6-3.4 3.1-2.4 0.8-5.1 0-6.9-1.8-4.2-4.3-10.7-8.8-14.2-10.8q-3.9-2.2-1.7-2.9-0.6-0.2-1.1-0.4c-2.8-1.2-5.1-1.7-3-2.9q2.3-1.4 10.4 1.5c-10.6-7-13.5-5.3-11.5-6.8 2.6-2 12.7 2.7 13 2.8-5.6-5.3-9.7-6.5-7.5-7.3 2.3-0.8 13.3 7.2 17.4 10.2q0.9 0.7 1.4 1.2-0.1-8.9 2.7-7.7z"/>
				<path id="&lt;Path&gt;" class="s2" d="m126.1 225.9q0.9 0.7 1.4 1.2-1.9 3.1 0.6 7.3-4.5-3-2-8.5z"/>
				<path id="&lt;Path&gt;" class="s2" d="m116.8 232.2c-0.9-0.5-6.3-3.5-8.4-3.4q-0.6-0.2-1.1-0.4c1.4-1.9 8.4 3 9.5 3.8z"/>
			</g>
			<g id="&lt;Group&gt;">
				<circle id="&lt;Path&gt;" class="s8" cx="156.6" cy="393.3" r="2.1"/>
				<circle id="&lt;Path&gt;" class="s8" cx="194.7" cy="408" r="2.1"/>
				<circle id="&lt;Path&gt;" class="s8" cx="227.1" cy="415.9" r="2.1"/>
				<circle id="&lt;Path&gt;" class="s8" cx="177.3" cy="365.5" r="2.1"/>
				<circle id="&lt;Path&gt;" class="s8" cx="184.5" cy="385.7" r="2.1"/>
				<circle id="&lt;Path&gt;" class="s8" cx="218.2" cy="397.3" r="2.1"/>
				<circle id="&lt;Path&gt;" class="s8" cx="222.9" cy="362.3" r="2.1"/>
				<circle id="&lt;Path&gt;" class="s8" cx="200.7" cy="355" r="2.1"/>
				<circle id="&lt;Path&gt;" class="s8" cx="137.7" cy="435" r="2.1"/>
				<circle id="&lt;Path&gt;" class="s8" cx="107.3" cy="425.9" r="2.1"/>
				<path id="&lt;Path&gt;" class="s8" d="m91.3 409.2c-0.4 0.6-1.1 1-1.8 1-1.2 0-2.1-1-2.1-2.2q0-0.4 0.1-0.7 2 0.7 3.8 1.9z"/>
				<circle id="&lt;Path&gt;" class="s8" cx="148.6" cy="462.8" r="2.1"/>
				<circle id="&lt;Path&gt;" class="s8" cx="94" cy="493.1" r="2.1"/>
				<circle id="&lt;Path&gt;" class="s8" cx="116.3" cy="474.7" r="2.1"/>
				<circle id="&lt;Path&gt;" class="s8" cx="83.1" cy="458.5" r="2.1"/>
				<circle id="&lt;Path&gt;" class="s8" cx="109.9" cy="522.4" r="2.1"/>
				<circle id="&lt;Path&gt;" class="s8" cx="130.2" cy="410.2" r="2.1"/>
				<circle id="&lt;Path&gt;" class="s8" cx="150.7" cy="374.2" r="2.1"/>
				<circle id="&lt;Path&gt;" class="s8" cx="174" cy="344.3" r="2.1"/>
				<circle id="&lt;Path&gt;" class="s8" cx="126.9" cy="387.9" r="2.1"/>
				<circle id="&lt;Path&gt;" class="s8" cx="152.9" cy="352.9" r="2.1"/>
				<circle id="&lt;Path&gt;" class="s8" cx="112" cy="449" r="2.1"/>
				<circle id="&lt;Path&gt;" class="s8" cx="85.2" cy="430.2" r="2.1"/>
				<circle id="&lt;Path&gt;" class="s8" cx="163" cy="423.8" r="2.1"/>
				<circle id="&lt;Path&gt;" class="s8" cx="207.1" cy="435" r="2.1"/>
				<circle id="&lt;Path&gt;" class="s8" cx="205" cy="374.2" r="2.1"/>
				<circle id="&lt;Path&gt;" class="s8" cx="230.7" cy="378.7" r="2.1"/>
				<circle id="&lt;Path&gt;" class="s8" cx="179.4" cy="451.2" r="2.1"/>
				<circle id="&lt;Path&gt;" class="s8" cx="160.9" cy="489.1" r="2.1"/>
				<circle id="&lt;Path&gt;" class="s8" cx="128.1" cy="495.2" r="2.1"/>
				<circle id="&lt;Path&gt;" class="s8" cx="218.2" cy="462.8" r="2.1"/>
				<circle id="&lt;Path&gt;" class="s8" cx="188.7" cy="479" r="2.1"/>
				<circle id="&lt;Path&gt;" class="s8" cx="144.3" cy="526.7" r="2.1"/>
				<circle id="&lt;Path&gt;" class="s8" cx="177.3" cy="515.5" r="2.1"/>
				<circle id="&lt;Path&gt;" class="s8" cx="209" cy="503" r="2.1"/>
				<circle id="&lt;Path&gt;" class="s8" cx="194.7" cy="539.7" r="2.1"/>
			</g>
			<g id="&lt;Group&gt;">
				<path id="&lt;Path&gt;" class="s4" d="m194.5 652.1h-35.1c-2.3-6.5 1.9-13.1 1.2-18.8q-1.2-9.7 4.5-4.4c1-10.4 15.7-12.4 15.5-7.7-0.2 6.8 1.1 11.1 3.1 13.9 3.9 5.7 10.4 5.7 11.5 9.8q0.2 0.6 0.3 1.1 1.1 5.1-1 6.1z"/>
				<path id="&lt;Path&gt;" class="s9" d="m195.5 646c-7.3 1.7-24-0.5-24.7-4.7-0.6-4.1 8.4-6 12.9-6.2 3.9 5.7 10.4 5.7 11.5 9.8q0.2 0.6 0.3 1.1z"/>
			</g>
			<g id="&lt;Group&gt;">
				<path id="&lt;Path&gt;" class="s4" d="m50.3 380.5q-3.7-3.4-9.8 2.2 3.3 4.9 1.2 6.8c-2.1 2-4.5-2.5-8.7-0.5q-0.5 0.2-1 0.6c-3.3 1.9-6.6 6-9.4 9q-0.8 1-1.5 1.7c-3.2 3.4-11.4 5.3-12.9-3.5-1.6-8.9 8.4-19.3 19.4-28.9q11-9.6 18-3.9 2.5 4 2.5 6.5c0 2.5 2.2 3.8 3.5 6.1q1.2 2.4-1.3 3.9z"/>
				<path id="&lt;Path&gt;" class="s9" d="m32 389.6c-3.3 1.9-6.6 6-9.4 9-4.1 1-7.8 0.7-8.3-3.1-1.4-9.4 17.2-21.2 15.7-14.7-0.8 3.3 0.5 6.4 2 8.8z"/>
			</g>
		</g>
		<g id="&lt;Group&gt;">
			<path id="&lt;Path&gt;" class="s5" d="m683.5 652.1h-33.2c-3.8-8.7-3.4-19-1.8-28q0 0 0 0c-2.5-21.7 3.9-26.9 14.7-24.5 11.1 2.4 14.5 8.8 13.3 16.6-1.2 7.9 0 15.3 0 15.3 1.4 2.5 3 4.5 4.7 5.4q7.5 4 2.3 15.2z"/>
			<path id="&lt;Path&gt;" class="s3" d="m710.4 520q0 21.6-12.2 43.8-12.5 22.7-27.8 53.7-10.3 10-16.8-6.6 4.6-57.6 15.2-78.7 10.5-21.1 41.6-12.2z"/>
			<path id="&lt;Path&gt;" class="s3" d="m869.7 449.5q19.8 83.2 32.4 105.2-2.9 9.1-16.5 11.9-43.1-63.3-45.9-89.9-2.7-26.7 30-27.2z"/>
			<g id="&lt;Group&gt;">
				<path id="&lt;Path&gt;" class="s10" d="m879.3 469.1q-5.3 12.6-45.9 13.3l-3.1-4.6-0.9-1.2-6.3-9.3q-67.4-66.1-80.5-60.6-0.6 0.3-1.1 0.7c-9.1 6.4-9.9 41.7-20.6 100.9-1 5.7-3.2 12.2-5 16.7q-0.3 0.8-0.5 1.4-1 2.5-1.7 4.1-41.1 16.7-54.7-16.2 0.5-1 1.2-2.5 0.3-0.5 0.5-1.1c2.2-4.8 5.6-13 5.6-17.4q-0.1-7.1-0.1-13.7 0-0.6 0-1.2c-0.1-14.2-0.1-26.6 0-37.3v-1.2q0.1-7 0.2-13.1v-1.2c0.4-18.7 1-31.2 1.6-39.5 0-0.4 0.1-0.8 0.1-1.2q1.1-14 2.3-15.3l-8.2-57.3h89.9q13.5 13.5 31 31.4 0.5 0.5 1.1 1c6.3 6.5 13.2 13.5 20.1 20.7q0.4 0.4 0.8 0.8 4 4.2 8.1 8.3 0.5 0.6 1 1.1c9 9.3 17.7 18.5 25.2 26.6q0.4 0.4 0.8 0.8c10.2 11.1 18 19.9 20.7 24.1 7.1 10.9 12.7 25.1 15.7 33.8q0 0 0 0c0.2 0.4 0.3 0.8 0.4 1.2q1.5 4.2 2.3 7z"/>
				<g id="&lt;Group&gt;">
					<path id="&lt;Path&gt;" class="s11" d="m683.9 378.1c-3.7 4.4-9 7-15.9 8 0-0.4 0.1-0.8 0.1-1.2 6.5-0.9 11.5-3.4 14.9-7.5 6.2-7.3 5.2-17.1 5.2-17.2l1.1-0.2c0 0.5 1.1 10.5-5.4 18.1z"/>
					<path id="&lt;Path&gt;" class="s11" d="m784.2 344.7q-0.5 0.1-1.1 0.1c-10 0-20.4-10.9-20.9-11.5l0.8-0.8c0.1 0.2 10.5 11.1 20.1 11.2q0.5 0.5 1.1 1z"/>
					<path id="&lt;Path&gt;" class="s11" d="m715.9 525q-0.3 0.8-0.5 1.4c-6.7 2.5-12.8 3.5-18.4 3.5-17.7 0-30-10.3-36.8-18.1q0.3-0.5 0.5-1.1c8.7 10.1 27.1 25.1 55.2 14.3z"/>
					<path id="&lt;Path&gt;" class="s11" d="m740.1 386.1c1.5 6.4 2.4 13.3 2.5 20.6q-0.6 0.3-1.1 0.7c-0.1-33.5-19.5-59.7-19.7-60l0.9-0.7c0.1 0.3 11.6 15.8 17.1 38.3 2.3-1.5 3.8-3.7 4.4-6.4 2.8-11.8-9.9-31-10-31.2l0.9-0.6c0.5 0.8 13.1 19.8 10.2 32-0.7 3.2-2.5 5.7-5.2 7.3z"/>
					<path id="&lt;Path&gt;" class="s11" d="m840.2 403c-3.4 3.6-6.5 6.7-6.7 6.9l-0.6 0.6-0.3-0.8c-4.4-11.4-32.4-36.1-32.7-36.3l-0.3-0.3 4.7-7.7q0.4 0.4 0.8 0.8l-3.9 6.5c5.4 1.8 9.3 2.2 12 1.8q0.5 0.6 1 1.1-1.4 0.2-3 0.2-3.7 0-8.5-1.5c6.3 5.8 26 24.1 30.6 34.2 1.7-1.7 3.9-4 6.1-6.3q0.4 0.4 0.8 0.8z"/>
					<path id="&lt;Path&gt;" class="s11" d="m686.6 479.4h-0.4c-0.4 0.2-5.5 1.2-11.3 1.2-2.9 0-5.9-0.3-8.7-1q0-0.6 0-1.2c7.3 2.1 17.1 0.5 19.3 0.1l-1.9-46.2c-1 2.5-3.1 6-6.9 7.9q-2.8 1.4-6.2 1.3-2 0-4.3-0.4v-1.2q5.8 1.4 9.9-0.7c4.8-2.4 6.6-7.4 7.2-9.3-3.7 0.5-11.2-1.4-16.9-3.1v-1.2c6.2 1.9 14.5 4 17.5 3l0.7-0.2z"/>
					<path id="&lt;Path&gt;" class="s11" d="m877 462.1c-6.4 6.4-19.7 16.1-40 16.1q-3.3 0-6.7-0.4l-0.9-1.2c24.8 2.9 40.3-8.7 47.2-15.7 0.2 0.4 0.3 0.8 0.4 1.2z"/>
				</g>
			</g>
			<path id="&lt;Path&gt;" class="s12" d="m762.8 149.3c-0.4 4.7-37 56.6-38 69.7q-20.2-39.9-52.6-40.5 59.7-40.1 60.6-41.1c1.9-1.9 7-55.8 11.9-69.8q3-4.5 11.1-4.5 10.4 0 12.9 5.7c10.3 32.8-5.2 71.8-5.9 80.5z"/>
			<path id="&lt;Path&gt;" class="s12" d="m765.7 320.9c10 8.5 4.1 20-30 35.4-34 15.5-63.6 6.8-67.2 6q-3.7-0.7-3.4-11.9 90.6-38 100.6-29.5z"/>
			<path id="&lt;Path&gt;" class="s13" d="m726 225.8c2.7 26.1 46.7 71.2 41.1 96.9-2.3 10.2-74.2 41-98.6 30.7-27.6-11.7-21.9-42.7-46.3-91.9q-24.4-49.2-19.5-71.2 17.8-7.7 48.8-4c46.2-25.9 71.7 13.4 74.5 39.5z"/>
			<path id="&lt;Path&gt;" class="s12" d="m613.8 208q6.1 19.4-3.4 26l-33.4 16.3q-20.3-4.5-20.3-16.3c0-11.7 24.4-36 46-43.7q5.1-1.8 11.1 17.7z"/>
			<g id="&lt;Group&gt;">
				<path id="&lt;Path&gt;" class="s5" d="m691.7 212c-6.5 0-14.5-2.3-19.5-5.9-2.7-1.9-4.4-4.2-4.7-6.4-1.2-7.7 6.2-11.6 6.6-11.7l1 1.9c-0.3 0.2-6.4 3.4-5.4 9.5 0.2 1.6 1.6 3.3 3.8 4.9 5.6 4 15.2 6.3 21.5 5.2q4.3-0.8 5.5-3c1-1.9 0.2-4 0.2-4l2-0.9c0.1 0.2 1.3 3.1-0.2 5.9-1.2 2.2-3.5 3.6-7.1 4.2q-1.7 0.3-3.7 0.3z"/>
			</g>
			<g id="&lt;Group&gt;">
				<path id="&lt;Path&gt;" class="s5" d="m664.2 235.4c-4.8 0-12.7-2-13.8-9.8-0.6-4-0.2-7.4 0.1-10.3 0.5-4.4 0.8-7.8-1.7-11.9-4.2-6.8-9.8-7.2-10.1-7.2l0.2-2.3c0.2 0.1 7 0.5 11.8 8.3 2.9 4.8 2.5 8.9 2 13.3-0.3 3-0.7 6-0.1 9.7 1.2 8.5 12 8 12.5 8l0.1 2.2q-0.5 0-1 0z"/>
			</g>
			<path id="&lt;Path&gt;" class="s12" d="m642.7 199.5q-43.1-9.5-29.5-24c13.6-14.4 66.4-15.2 70.3-3.2q3.9 12.1-12.5 23.3c-3.7-3.5-25-2.8-28.3 3.9z"/>
			<path id="&lt;Path&gt;" class="s14" d="m641.5 193.7c-7.7-2.7-12.3-8.3-10.7-14.7 1.7-6.5 35.1-6.7 41.4-1.5 6.4 5.2-2.6 25.7-30.7 16.2z"/>
			<path id="&lt;Path&gt;" class="s2" d="m662.3 172.3q-1.6 6.4 2.8 16.3 0 13.2-23.6 5.1 3.2-6.5-3.7-18.2z"/>
			<g id="&lt;Group&gt;">
				<path id="&lt;Path&gt;" class="s15" d="m630 165.2q-11.6-18.5-10.5-36.3 0.5-8.8 5.1-12.3-3.7-5.1 0.2-12.9 5.5 6.3 24.6 4.3 18.5-1.9 20.3 11.2c13.2 2 4.3 41.9-4.9 46z"/>
				<path id="&lt;Path&gt;" class="s3" d="m626.4 159c-1.6 2.8-9.8-0.8-8.8-9.8q0.8-7.8 7.5-1.1 2.9 8 1.3 10.9z"/>
				<path id="&lt;Path&gt;" class="s3" d="m671.7 148.6q6.7-6.7 7.5 1.1c0.9 9-7.3 12.6-8.9 9.7q-1.5-2.8 1.4-10.8z"/>
				<path id="&lt;Path&gt;" class="s3" d="m647.7 180.7c-14.8 0-23.1-9.7-23.1-38.6 0-14.9 7.6-24.1 24.1-24.1 16.6 0 23.5 9.2 23.5 24.1 0 31.1-9.3 38.6-24.5 38.6z"/>
				<path id="&lt;Path&gt;" class="s6" d="m667.3 152.4c0.3 1.5-1 3-2.9 3.3-1.8 0.3-3.5-0.6-3.8-2.1-0.3-1.5 1-3 2.9-3.3 1.9-0.3 3.6 0.6 3.8 2.1z"/>
				<ellipse id="&lt;Path&gt;" class="s6" cx="633.5" cy="153" rx="3.4" ry="2.7"/>
				<g id="&lt;Group&gt;">
					<path id="&lt;Path&gt;" class="s15" d="m660.8 136.9q-0.3 0-0.5-0.2c-2.4-1.8-5.9-1.1-6-1.1-0.4 0-0.8-0.2-0.8-0.6-0.1-0.4 0.2-0.8 0.6-0.9 0.1 0 4.2-0.7 7.1 1.5 0.3 0.2 0.3 0.7 0.1 1q-0.2 0.2-0.5 0.3z"/>
				</g>
				<g id="&lt;Group&gt;">
					<path id="&lt;Path&gt;" class="s15" d="m632.5 137q-0.2 0-0.4-0.3c-0.3-0.3-0.3-0.8 0.1-1 2.8-2.3 6.9-1.7 7-1.7 0.4 0.1 0.7 0.5 0.6 0.9 0 0.4-0.4 0.6-0.8 0.6 0 0-3.6-0.5-5.9 1.3q-0.3 0.2-0.6 0.2z"/>
				</g>
				<ellipse id="&lt;Path&gt;" class="s7" cx="657.5" cy="145.2" rx="1.8" ry="3.3"/>
				<ellipse id="&lt;Path&gt;" class="s7" cx="637.7" cy="145.2" rx="1.8" ry="3.3"/>
				<path id="&lt;Path&gt;" class="s15" d="m629.1 121.2q15.7 5.8 38.3 4.1 4.8 6 4.2 27.2 13.3-38.1-25.3-38.1-38.6 0-21.2 37.3-3.2-23.4 4-30.5z"/>
				<g id="&lt;Group&gt;">
					<path id="&lt;Path&gt;" class="s6" d="m648.6 155.1l-1.1-1.1 2.9-2.9c-2.8-4-2.8-13.3-2.8-13.7h1.6c0 0.1 0 10.1 2.9 13.2l0.5 0.6z"/>
				</g>
				<path id="&lt;Path&gt;" class="s7" d="m638.8 159.9q14.5 0.6 21.9-1.3 1.3 10.6-10 11.1-11.9 0.6-11.9-9.8z"/>
			</g>
			<path id="&lt;Path&gt;" class="s5" d="m701 199.9c2.7-0.5 2.5 6.8 0 4.7-2.5-2.1-2.8-4.2 0-4.7z"/>
			<path id="&lt;Path&gt;" class="s5" d="m667.5 235.1c-0.4 2.8-7.2 0.2-4.4-1.5 2.8-1.7 4.8-1.3 4.4 1.5z"/>
			<path id="&lt;Path&gt;" class="s2" d="m644 257.9l5.8 3.6-1.4 20.9q-6.6 2.5-7.2 2.5c-0.6 0-9.9-2.7-9.3-6.4q0.6-3.7 4-5-2.1 0.8-2.4-5.5-0.2-6.4 4.2-17.7z"/>
			<path id="&lt;Path&gt;" class="s3" d="m641.2 248.8q8 5 11.1 8.1c3.1 3 1.4 26.6 0 27.7-1.3 1.1-11.5 3.4-13.5 2.1q-2-1.3 0.8-8.2 5.1-1.1 4.4 0.8-0.8 2 0 3.7l2.1-0.9q-1.1-5.3 0-9.1c1-3.9-7.3-8-8.3-15.1q-1-7.1 3.4-9.1z"/>
			<path id="&lt;Path&gt;" class="s12" d="m558 237.3c-2.5-11.1 8.5-15 23.8-13.1 17.7 2.2 54.2 6.8 62.2 26.1q2.5 7.6-4.2 11.2c-18.7 10.2-76.9-3.3-81.8-24.2z"/>
			<path id="&lt;Path&gt;" class="s14" d="m613.6 230q-21.2-8.8-31.7-9.7c-10.6-0.9 14.6 8.3 31.7 9.7z"/>
			<g id="&lt;Group&gt;">
				<path id="&lt;Path&gt;" class="s3" d="m772.3 39.4q-1.6 1.8-4.2 8.9c-1.2 5.9-1.8 9.2-3.9 11.9q-2.1 2.8-1 7.6-8 4.1-14.8-1 0.7-4.8 0-6.1c-1.4-2.7-5.9-4.2-7.5-9.6q-1.5-5.5-6.1-11.6 1.3-2.9 3.7-1.1c2.4 1.7 4 6.1 5.3 6.5q0.4 0.2 0.8 0.2 0 0 0.1 0c1 0.2 2-0.1 2.6-0.7q0.1 0 0.1-0.1c2.2-2.5 2.8-10 2.7-13.4-0.2-4.7 0-11.1 2.9-10 2.8 1.1 0.2 3.7 2.4 14l1.1 0.1c0.2 0.7 2.1-6.3 2.6-12.8 0.3-4.5 3.3-2.8 3.9-1.4 0.7 1.4-0.3 5.9-0.5 9.1-0.2 2.2-0.4 4.4-0.5 5.8l1.3 0.7c4.5-7.9 2.9-11.1 5.6-11.3 2.6-0.1 1.6 6.5 0.2 9-0.6 1.1-1.2 3.4-1.6 5.6 4.6-5.3 4.1-8.1 6.2-7.8 2.2 0.4 0.2 5.6-1.4 7.5z"/>
				<path id="&lt;Path&gt;" class="s2" d="m752.4 51.6c-1.5-4.3-7.1-6.2-7.7-6.5 1 0.2 2-0.1 2.6-0.7q5.4 2.5 5.1 7.2z"/>
			</g>
			<g id="&lt;Group&gt;">
				<path id="&lt;Path&gt;" class="s5" d="m656 619.5q-3.1-6.2-0.3-8.9c2.7-2.7 5.9 2.3 10.6 1.2 4.7-1.1 5.8-4.5 7 0.1 1.2 4.5-0.3 18.7-17.3 7.6z"/>
				<path id="&lt;Path&gt;" class="s0" d="m671.7 622.7q-1.9 3.5-15.5 2l-1.7-5.4q6.5 4.4 19.1 0z"/>
				<path id="&lt;Path&gt;" class="s0" d="m676.2 630q-4.8-3.5-19.8 0v-2.7q5.5-2.9 17-1.3z"/>
				<path id="&lt;Path&gt;" class="s0" d="m655.8 635.6q2.3-5.5 9.3-5.8 7-0.4 11.7 3.4-11.1-4.6-21 2.4z"/>
			</g>
			<g id="&lt;Group&gt;">
				<path id="&lt;Path&gt;" class="s5" d="m952 560q-22.1 29.5-52.2 35.2-8.7-7-8.9-15.3-8.4-7.5-9.5-11.1c-1.1-3.6 7.2-14.4 12.2-13.3 3.4 0.8 5.4 3.5 6.3 5.1-4.1-9.3-0.8-12.5 5.1-11.7 6.1 0.8 0.3 2.3 4.7 7.2q0.5 0.5 1 0.9 1.2 0.8 2.9 1.1c0.9 0.2 2 0.2 3.1 0.2q0.9-0.1 1.8-0.2 1.7-0.3 3.5-0.8c1.8-0.6 3.7-1.4 5.6-2.5 7.6-4.1 10.8-5.6 16.7-4.1q5.7 1.5 5.7 5.9z"/>
				<path id="&lt;Path&gt;" class="s0" d="m938.9 569.3c-9.6 10.6-23.7 19.3-39.1 25.9q30.1-5.7 52.2-35.2-3.5-1.3-13.1 9.3z"/>
				<g id="&lt;Group&gt;">
					<path id="&lt;Path&gt;" class="s0" d="m910.7 557q1.2 0.8 2.9 1.1-5.9 1.2-6.3 6.4l-2.5-0.8c0.6-6.2 5.5-6.7 5.9-6.7z"/>
					<path id="&lt;Path&gt;" class="s0" d="m914.7 565.1l-2.6 0.1c-1-3.7 0.2-5.9 1.5-7.1 0.9 0.2 2 0.2 3.1 0.2q-3.1 3-2 6.8z"/>
					<path id="&lt;Path&gt;" class="s0" d="m921.1 563.7l-2.6 0.3c-1-2.6-0.7-4.5 0-5.9q1.7-0.3 3.5-0.8-2.2 3.1-0.9 6.4z"/>
				</g>
			</g>
			<path id="&lt;Path&gt;" class="s12" d="m673.8 289.9q5.7 30.8-5.8 43c-11.5 12.3-3.9 2.2-0.5-13.6 3.5-15.8 0.9-32.5 6.3-29.4z"/>
			<path id="&lt;Path&gt;" class="s12" d="m727 276.2q18.2 5.9 27.7 22.7-12.7-27.3-27.7-22.7z"/>
		</g>
		<g id="&lt;Group&gt;">
			<g id="&lt;Group&gt;">
				<path id="&lt;Path&gt;" class="s3" d="m248.5 43.6c1.2-1.8 2.9 0.4 9.9 0.6-1.9-1.2-4-2.3-5.2-2.6-2.8-0.6-8.3-4.3-6.5-6.2 1.9-1.8 3.3 1.5 12.1 3.4l0.3-1.3c-1.1-0.9-2.8-2.2-4.5-3.6-2.6-2-6.6-4.3-7.2-5.7-0.6-1.5 0.1-4.8 3.7-2 5.2 4.1 11.6 7.3 11.2 6.7l0.6-0.9c-6.1-8.5-9.8-8.4-8.7-11.2 1.1-2.8 6 1.4 9.4 4.6 2.4 2.3 8.3 7 11.7 7q0.1 0.1 0.2 0c0.9 0 1.7-0.6 2.3-1.5q0 0 0 0 0.3-0.4 0.4-0.8c0.6-1.2-1.6-5.3-1.3-8.3q0.3-2.9 3.3-2 1.4 7.5 4.5 12.4c3 4.8 1 9 2.1 11.9q0.5 1.4 8.1 12.1-0.8 8.5-14.2 5.5-1.4-5.8-4.9-6.1c-3.4-0.3-6.3-2.1-11.4-5.2q-7-2.8-9.5-2.9c-2.4 0-7.6-2.1-6.4-3.9z"/>
				<path id="&lt;Path&gt;" class="s2" d="m275.5 32.4c0.9 0 1.7-0.6 2.3-1.5-0.3 0.7-2.6 6.1-0.5 10.1q-3.6-2.9-1.8-8.6z"/>
			</g>
			<g id="&lt;Group&gt;">
				<path id="&lt;Path&gt;" class="s3" d="m650.7 47.5q-2.5 0.1-9.5 2.9c-5.1 3.1-8 4.9-11.4 5.2q-3.4 0.3-4.8 6.1-13.5 3-14.3-5.5 7.6-10.7 8.1-12.1c1.1-2.9-0.9-7.1 2.1-11.9q3.1-4.9 4.5-12.4 3-0.9 3.3 2c0.3 3-1.9 7.1-1.3 8.3q0.2 0.4 0.4 0.8 0 0 0 0c0.6 0.9 1.4 1.5 2.3 1.5q0.1 0.1 0.2 0c3.4 0 9.3-4.7 11.7-7 3.4-3.2 8.3-7.4 9.4-4.6 1.1 2.8-2.6 2.7-8.7 11.2l0.6 0.9c-0.4 0.6 6-2.6 11.2-6.7 3.6-2.8 4.3 0.5 3.7 2-0.6 1.4-4.6 3.7-7.2 5.7-1.7 1.4-3.4 2.7-4.5 3.6l0.3 1.3c8.8-1.9 10.2-5.2 12.1-3.4 1.8 1.9-3.7 5.6-6.5 6.2-1.2 0.3-3.2 1.4-5.2 2.6 7-0.2 8.7-2.4 9.9-0.6 1.2 1.8-4 3.9-6.4 3.9z"/>
				<path id="&lt;Path&gt;" class="s2" d="m628.3 41c2.1-4-0.2-9.4-0.5-10.1 0.6 0.9 1.4 1.5 2.3 1.5q1.8 5.7-1.8 8.6z"/>
			</g>
			<path id="&lt;Path&gt;" class="s1" d="m544.9 610.4q-4 12.8-29.8 4-19.1-144-22.1-147.1-3-3.2-33.4-97.2h-9.5q-30.4 94-33.3 97.2-3 3.1-22.1 147.1-25.9 8.8-29.8-4l12.4-155.2 25.8-160 51.8 5.8 51.7-5.8 25.9 160z"/>
			<path id="&lt;Path&gt;" class="s16" d="m438.6 140.3c3.3 3.2 19.3 8.9 27.8 0l5.8 5.7q-6.6 15.4-18.1 15.9-11.5 0.6-19.8-13.7z"/>
			<path id="&lt;Path&gt;" class="s16" d="m484.1 138.6q19.3-8.3 81.4-30.3 41.8-52.4 50.4-60.2 9.2 1.7 11.9 13.2-26.9 57.6-41.5 74.1-14.7 16.5-88.7 52.2z"/>
			<path id="&lt;Path&gt;" class="s15" d="m416.8 137.4q5.7-3.6 34.4 15.6 37.4-19.8 46.2-16 7.9 10.6 11.1 37.8 3.1 27.1 3.3 139-25.1 8.9-59.1 8.9-38.7 0-59.6-11.1-6.9-154.9 23.7-174.2z"/>
			<path id="&lt;Path&gt;" class="s2" d="m464.2 135.5q-4.8 4.4 0 17-3.1 9.9-12.1 9.4-7.7-0.4-12-9.4 4.1-5 0-18z"/>
			<g id="&lt;Group&gt;">
				<path id="&lt;Path&gt;" class="s10" d="m429.8 121.7q-8.7-16.8-7-34.7c1.7-17.9 28.7-22 46.9-13.2q-5.4-5.3-3.3-6.8 2.1-1.4 5.8 7.9 5.7-1.7 6.6 0 0.9 1.8-5.9 2.8 11.8 6.5 0.8 41.1z"/>
				<path id="&lt;Path&gt;" class="s3" d="m429.8 121.7c-1.6 2.8-9.5-0.8-8.6-9.6q0.8-7.5 7.3-1 2.8 7.8 1.3 10.6z"/>
				<path id="&lt;Path&gt;" class="s3" d="m474 111.5q6.4-6.5 7.2 1.1c1 8.8-7 12.3-8.6 9.5q-1.5-2.8 1.4-10.6z"/>
				<path id="&lt;Path&gt;" class="s3" d="m450.5 142.8c-14.4 0-22.5-9.4-22.5-37.6 0-14.6 7.4-23.5 23.5-23.5 16.2 0 23 8.9 23 23.5 0 30.3-9.1 37.6-24 37.6z"/>
				<path id="&lt;Path&gt;" class="s6" d="m469.7 115.3c0.3 1.4-1 2.8-2.8 3.2-1.8 0.3-3.5-0.6-3.8-2.1-0.2-1.4 1.1-2.9 2.9-3.2 1.8-0.3 3.5 0.6 3.7 2.1z"/>
				<ellipse id="&lt;Path&gt;" class="s6" cx="436.7" cy="115.8" rx="3.3" ry="2.7"/>
				<g id="&lt;Group&gt;">
					<path id="&lt;Path&gt;" class="s10" d="m463.1 100.6q-0.3 0-0.5-0.2c-2-2.1-5.5-2-5.6-2-0.3 0-0.7-0.3-0.7-0.7 0-0.4 0.3-0.7 0.7-0.7 0.2-0.1 4.2-0.1 6.6 2.4 0.3 0.3 0.3 0.7 0 1q-0.2 0.2-0.5 0.2z"/>
				</g>
				<g id="&lt;Group&gt;">
					<path id="&lt;Path&gt;" class="s10" d="m436 100.6q-0.3 0-0.5-0.2c-0.3-0.3-0.3-0.7 0-1 2.4-2.5 6.4-2.5 6.6-2.4 0.4 0 0.7 0.3 0.7 0.7 0 0.4-0.4 0.7-0.8 0.7 0 0-3.5-0.1-5.5 2q-0.2 0.2-0.5 0.2z"/>
				</g>
				<ellipse id="&lt;Path&gt;" class="s7" cx="460.1" cy="108.3" rx="1.8" ry="3.2"/>
				<ellipse id="&lt;Path&gt;" class="s7" cx="440.8" cy="108.3" rx="1.8" ry="3.2"/>
				<path id="&lt;Path&gt;" class="s7" d="m442.6 127.4q12.7 1.7 19.3-1.5-3.7 8.7-10.7 7.9-6.9-0.8-8.6-6.4z"/>
				<path id="&lt;Path&gt;" class="s10" d="m473 114.7q-0.5-15.7-6.6-27.7-10.7 5-13.1 3.8-2.4-1.2 2.3-3.8-17.8 5.8-18.9 4.7-1-1.2 5.9-4.7l-11 3.8q-3.4 14.1-2 23.9-4.8-8.2-5.4-13.9c-0.6-5.6 1.9-21.8 18.6-22.9 16.6-1.2 26 2.6 30.1 10.2 4.1 7.7 3.6 17.1 0.1 26.6z"/>
				<g id="&lt;Group&gt;">
					<path id="&lt;Path&gt;" class="s6" d="m453 122.9c-1.4 0-2.8-0.4-3.2-0.5l0.4-1.5c1.5 0.4 3.9 0.7 4.4 0.1 0.2-0.2 0.1-0.7-0.2-1.4-2.1-4.4-2.5-15.6-2.5-16.1h1.5c0 0.1 0.4 11.3 2.4 15.5q0.9 1.9 0 3c-0.6 0.7-1.7 0.9-2.8 0.9z"/>
				</g>
			</g>
			<path id="&lt;Path&gt;" class="s17" d="m501.6 131.6c20.3 19.1 26.6 133.4 16 147.8q-10.6 14.5-20 11.9-2.5-65.9-28.6-146.9 23.3-14.9 32.6-12.8z"/>
			<path id="&lt;Path&gt;" class="s16" d="m466.4 140.3q7.4-7.4 9.4 0 2.1 7.5-2.6 18.3-3.8-6.1-6.8-18.3z"/>
			<path id="&lt;Path&gt;" class="s16" d="m407.5 187.6q-74.1-35.7-88.8-52.2-14.6-16.5-40.9-70.5 0.7-12.3 11.2-18.3 8.6 7.8 50.5 61.7 62.1 22 81.4 30.3z"/>
			<path id="&lt;Path&gt;" class="s17" d="m436 144.4q-26.1 81-28.5 146.9-9.5 2.6-20.1-11.9c-10.5-14.4-4.2-128.7 16.1-147.8q9.2-2.1 32.5 12.8z"/>
			<path id="&lt;Path&gt;" class="s16" d="m431.8 158.6q-4.7-10.8-2.6-18.3 2.1-7.4 9.4 0-3 12.2-6.8 18.3z"/>
			<g id="&lt;Group&gt;">
				<path id="&lt;Path&gt;" class="s11" d="m567.9 652.1h-51.8q-3.6-20.6 2.1-41.2l23.7-4c2.2 13 4.8 18.1 8.4 20.7q0 0 0 0c2.6 2 5.7 2.6 9.6 3.9 4.5 1.6 6.9 4.4 8 7.5q2.4 6.1 0 13.1z"/>
				<path id="&lt;Path&gt;" class="s10" d="m567.9 639c-12.7 1.6-40.8 4.3-39.1-3.1 1.5-6.2 13.3-7.8 21.5-8.3q0 0 0 0c2.6 2 5.7 2.6 9.6 3.9 4.5 1.6 6.9 4.4 8 7.5z"/>
			</g>
			<g id="&lt;Group&gt;">
				<path id="&lt;Path&gt;" class="s11" d="m394.5 652.1h-51.8q-1.7-4.8-0.9-10c0.6-4.1 2.8-8.5 8.8-10.6 4.5-1.5 7.9-2.1 10.7-4.7 3.1-2.9 5.4-8.3 7.3-19.9l23.7 4q5.8 20.6 2.2 41.2z"/>
				<path id="&lt;Path&gt;" class="s10" d="m341.8 642.1c0.6-4.1 2.8-8.5 8.8-10.6 4.5-1.5 7.9-2.1 10.7-4.7 6.6 2 15.8 5.7 18.6 11.3 4 7.7-26.3 6.5-38.1 4z"/>
			</g>
		</g>
		<g id="&lt;Group&gt;">
			<g id="&lt;Group&gt;">
				<path id="&lt;Path&gt;" class="s4" d="m766.2 648.4q0 2.2-0.2 3.7h-62.9q0-1.9 0.1-3.7 0.7-16.5 5.9-30.7l15.7-6.8c1.4 8.1 4.8 13.3 9.2 16.7q1.7 1.3 3.6 2.3 0.9 0.5 1.8 0.9 1.9 0.8 4 1.4c5.5 1.7 11.2 2.1 15.1 2.7 6.7 1 7.7 8.8 7.7 13.5z"/>
				<path id="&lt;Path&gt;" class="s18" d="m766.2 648.4q0 2.2-0.2 3.7h-62.9q0-1.9 0.1-3.7z"/>
				<path id="&lt;Path&gt;" class="s18" d="m737.6 629.9l-8.7 2.8-1.9-3.2 7-1.9q1.7 1.3 3.6 2.3z"/>
				<path id="&lt;Path&gt;" class="s18" d="m743.4 632.2l-5.9 3.9-3.6-1.4 5.5-4q1.9 0.9 4 1.5z"/>
			</g>
			<g id="&lt;Group&gt;">
				<path id="&lt;Path&gt;" class="s4" d="m525.9 648.4q-0.2 2.1-0.7 3.7h-41.9q-0.8-1.8-1.2-3.7-4.2-20 23.7-44.6l8.8 11.8q-1 18.9 6.5 22.8c4.5 2.4 5.1 6.8 4.8 10z"/>
				<path id="&lt;Path&gt;" class="s18" d="m482.1 648.4h43.8q-0.2 2.1-0.7 3.7h-41.9q-0.8-1.8-1.2-3.7z"/>
				<path id="&lt;Path&gt;" class="s18" d="m519.2 636.9q-17.7-4-25.7 1.2v-2.9q14.8-7.2 25.7 1.7z"/>
				<path id="&lt;Path&gt;" class="s18" d="m515.7 632.4q-11.3-5.1-22.2 0l1.2-2.9q13.1-4.9 21 2.9z"/>
			</g>
			<path id="&lt;Path&gt;" class="s19" d="m747.2 470.1q0 16.9-14.9 154.3-15 1.5-27-1.5-4.1-69.6-4.5-129.5l-71.7-53.8-0.2-0.1q-0.2 1.2-0.7 3.4c-3.6 15.7-18.6 81.8-24.9 96.9q-7.1 17.2-85 89.7-14.5-2-26.8-12.5 28-46.4 66.1-92.9c3-16.8 5.1-54 6.4-81.8q0-0.6 0.1-1.2 0.8-18.9 1.2-33.1l-13.1-26.9 83.5-30.7 18.7 23.9q4.3 4 11 10.4 0.5 0.4 1 0.8c25 23.7 80.8 77.1 80.8 84.6z"/>
			<g id="&lt;Group&gt;">
				<path id="&lt;Path&gt;" class="s8" d="m564 442.3q0-0.6 0.1-1.2c17.5-9.6 14.6-24.8 14.5-25l1.1-0.2c0.1 0.1 3.2 16.5-15.7 26.4z"/>
				<path id="&lt;Path&gt;" class="s8" d="m627.8 428.8q0.9 5 1.3 10.8l-0.2-0.1q-0.2 1.2-0.7 3.4c-0.8-26.1-11.6-41.6-11.7-41.8l0.9-0.6c0.1 0.1 6.9 10 10.2 27.1 12.7-11.3 0.3-34.4 0.1-34.6l1-0.6c0.1 0.3 13.3 24.7-0.9 36.4z"/>
				<path id="&lt;Path&gt;" class="s8" d="m666.4 385.5q-0.1 0-0.1 0.1c-0.5 0.2-1.1 0.2-1.7 0.2-6.2 0-16.5-8.6-17-9l0.7-0.8c3.4 2.8 12.7 9.6 17.1 8.7q0.5 0.4 1 0.8z"/>
			</g>
			<path id="&lt;Path&gt;" class="s0" d="m558 237.3q25.4-4.1 38.2 4 12.7 8.2 29.4 29.3-19.8 2.7-22.1 16.1-14.4-34.3-45.5-49.4z"/>
			<path id="&lt;Path&gt;" class="s5" d="m558 237.3c16.4-1.3 32.1 6.9 41.3 20.9 8.4 12.7 12.8 28 17.1 42.4q10.7 35.4 41.6 76.9c-54.7 65.7-101.2 47.2-101.3 47-9.1-37.4-30.6-65.6-51-97.6-6.5-10.2-16.2-22.2-15.4-35.3 0.8-13.4 18.8-35.2 29.5-41 10.6-5.8 24.4-12.2 38.2-13.3z"/>
			<path id="&lt;Path&gt;" class="s2" d="m539.8 234q-1.7 6.4 2.8 16.3 0 13.2-23.6 5.1 3.2-6.5-3.7-18.2z"/>
			<path id="&lt;Path&gt;" class="s2" d="m577 322.7l-5 10.5-4.3 7.8h-22.7q3-10.4 6.3-15 3.3-4.7 16.4-8.4z"/>
			<g id="&lt;Group&gt;">
				<path id="&lt;Path&gt;" class="s4" d="m507.1 230.5c-10.3-2.7-18.1-29.5-14.2-42.1 3.8-12 12.3-18.4 23-20.7q15.6-3.2 20.1 3.6c3.6 0.1 9.3 2.9 13.3 21.2q5.9 27.7-3.3 31.6z"/>
				<path id="&lt;Path&gt;" class="s3" d="m548.2 205.4q5.8-8.1 8-0.2c2.5 9.3-5.4 14.5-7.5 11.7q-2.2-2.7-0.5-11.5z"/>
				<path id="&lt;Path&gt;" class="s3" d="m502.9 225c-1.2 3.3-10.3 0.9-10.9-8.7q-0.5-8.2 7.6-2.4 4.5 7.8 3.3 11.1z"/>
				<path id="&lt;Path&gt;" class="s3" d="m498 207.2c-2.6-15.6 3.1-26.3 20.4-29.2 17.2-2.8 26.7 5.4 29.3 21 5 30.2-2.1 41.7-17.5 44.3-15.9 2.6-26.9-3.6-32.2-36.1z"/>
				<ellipse id="&lt;Path&gt;" class="s6" cx="508.5" cy="217.2" rx="3.6" ry="2.9"/>
				<path id="&lt;Path&gt;" class="s6" d="m539.5 209.1c2-0.4 3.9 0.5 4.2 2 0.4 1.6-0.9 3.2-2.8 3.7-2 0.4-3.9-0.5-4.2-2-0.4-1.6 0.9-3.2 2.8-3.7z"/>
				<g id="&lt;Group&gt;">
					<path id="&lt;Path&gt;" class="s7" d="m509.2 200.3q-0.3 0-0.5-0.1c-0.3-0.2-0.4-0.7-0.2-1.1 2.2-3.2 6.5-3.8 6.7-3.8 0.5 0 0.8 0.3 0.9 0.7 0 0.4-0.3 0.8-0.7 0.9 0 0-3.8 0.5-5.6 3.1-0.1 0.2-0.4 0.3-0.6 0.3z"/>
				</g>
				<g id="&lt;Group&gt;">
					<path id="&lt;Path&gt;" class="s7" d="m538.2 195.5q-0.2 0-0.5-0.1c-2.5-1.9-6.2-1.2-6.2-1.2-0.5 0.1-0.9-0.2-1-0.6-0.1-0.4 0.2-0.8 0.6-0.9 0.2-0.1 4.5-0.9 7.6 1.4 0.3 0.3 0.4 0.8 0.1 1.1-0.1 0.2-0.4 0.3-0.6 0.3z"/>
				</g>
				<path id="&lt;Path&gt;" class="s7" d="m513.3 204.5c1.1-0.2 2.2 1.2 2.5 3.1 0.4 2-0.3 3.6-1.3 3.8-1.1 0.2-2.2-1.2-2.5-3.1-0.3-1.9 0.3-3.6 1.3-3.8z"/>
				<path id="&lt;Path&gt;" class="s7" d="m533.9 201.1c1.1-0.2 2.2 1.2 2.5 3.1 0.3 2-0.3 3.7-1.3 3.8-1.1 0.2-2.2-1.2-2.5-3.1-0.3-1.9 0.3-3.6 1.3-3.8z"/>
				<path id="&lt;Path&gt;" class="s7" d="m530 229q-7.3 1.9-12.4-4.6 7.4 1.4 20.8-2.1-1.1 4.9-8.4 6.7z"/>
				<path id="&lt;Path&gt;" class="s1" d="m548.8 209.1q11.7-41.9-28.5-35.2-40.3 6.6-19.9 44.1l-0.7-19.4q21.9-1 39.3-13.6 8.6 6 9.8 24.1z"/>
				<g id="&lt;Group&gt;">
					<path id="&lt;Path&gt;" class="s6" d="m524.8 217l-0.2-1.6c0.1 0 2.4-0.2 3-1.7 0.2-0.6-0.7-2.4-1.6-4.1-1.2-2.3-2.7-5.2-3.4-8.4l1.7-0.3c0.6 2.9 2 5.7 3.2 7.9 1.3 2.5 2.2 4.3 1.6 5.6-1 2.4-4.2 2.6-4.3 2.6z"/>
				</g>
				<path id="&lt;Path&gt;" class="s12" d="m548.4 185q-29.2-12.7-56.9 13.7-3.2-21.4 2.5-26.4 2.2-1.9 4.6-3.4c13-8.2 30.2-8 38-5.2 1.7 0.5 2.9 1.2 3.6 2q4.7 4.8 8.2 19.3z"/>
				<path id="&lt;Path&gt;" class="s5" d="m544.9 180.3q-24.6-4.9-47.5 10.3-1.5-13.8 1.2-21.7c13-8.2 30.2-8 38-5.2q4.6 5.2 8.3 16.6z"/>
				<path id="&lt;Path&gt;" class="s14" d="m494 196.2q3.9-16.6 9.1-21.2c8.7-7.8 33.3-10.5 46.2-5.8q12.9 4.7 0 18.8-20.6-14.8-55.3 8.2z"/>
			</g>
			<path id="&lt;Path&gt;" class="s3" d="m531.9 306.1q10.1 15.6 27.2 24.8 21.4-18.6 49.1-16.9-23 41.5-42.7 46-10.4 2.5-47.9-22.4 7.5-26.4 14.3-31.5z"/>
			<path id="&lt;Path&gt;" class="s0" d="m494.9 277.9c9.2-14.9 30.4 7.2 37.6 23q7.3 15.8 12.5 19.1-21.2 8.9-21 24.8-49.1-34.2-29.1-66.9z"/>
			<path id="&lt;Path&gt;" class="s2" d="m559.1 324q12.9-12.6 55.3-29.2l-5.5-17.2q4.9-6.4 13.9-6.4 21.7 30.7 18 39.9c-2.4 5.7-47.7 11.7-81.7 12.9z"/>
			<path id="&lt;Path&gt;" class="s3" d="m605.5 299q0.4-1.8 2-4.1c1.5-2.2 1.1-6.2 1.7-7.5 0.5-1.2 3.9-6.3 6.1-7.3 2.2-1 5.1-2.6 5.7 0.2 0.6 2.8-4 2-6 6.1q4.5-1.5 8.1-0.7c3.5 0.9 4.6 4.2 0.1 4.1q-3.5-0.1-8 2.4 4.6 0.7 3.8 2.8c-1 2.9-6.6 1.1-13.5 4z"/>
		</g>
		<g id="&lt;Group&gt;">
			<path id="&lt;Path&gt;" class="s20" d="m285.8 317.4c-0.6-5 7.1-31.4 14.3-34.2q7.3-2.9 8.6-18.8l63.2 24.1q48.7 88.5 37.4 92.7c-11.4 4.2-25.3-1.7-42.8-11.2q-17.6-9.6-55.5 13.2-15.6-16.7-19.4-26.4-5.3-34.4-5.8-39.4z"/>
			<path id="&lt;Path&gt;" class="s2" d="m362.7 383.7q-16.3 32-49.9 72.8-3.5 48.7-92.4 125.2l-9.3-7.4q53-82.9 63.6-108.3c10.6-25.5-5.9-48.8 42.8-113.1z"/>
			<path id="&lt;Path&gt;" class="s11" d="m345 393.4l-10.5 27.8q-26.1-4.5-48.7-16.7l6.3-16.1q4.7-34.3 18.8-61.2z"/>
			<path id="&lt;Path&gt;" class="s3" d="m384 381.2q6.9 35.2 5.8 88.1 27.3 40.3 4.8 155.4h-11.9q-9.7-97.9-17.1-124.4c-7.4-26.6-34.7-34.7-36.2-115.4z"/>
			<g id="&lt;Group&gt;">
				<path id="&lt;Path&gt;" class="s10" d="m390.9 419q-22.2 4-61.5 2.1l-0.6-4.4-0.2-1.1-4-28.6q-3.8-4.7-7.7-12.3-0.7-1.3-1.3-2.8c-5.3-11.2-10-27.6-4.7-44.6l8.2 0.3 1.2 0.1 27.7 1.3h1.2l9.1 0.4 1.4 0.1 5.9 0.3q30 27 24.7 77l0.4 6.9v1.1z"/>
				<g id="&lt;Group&gt;">
					<path id="&lt;Path&gt;" class="s11" d="m320.3 327.7c-0.8 2.3-6 19.2-3.4 47q-0.7-1.3-1.3-2.8c-2-25.3 2.5-41.2 3.5-44.3q0.2-0.5 0.2-0.5l1.1 0.3q0 0.1-0.1 0.3z"/>
					<path id="&lt;Path&gt;" class="s11" d="m390.7 414.8c-7.9 2.1-21.2 2.6-33.9 2.6-11.4 0-22.3-0.4-28-0.7l-0.2-1.1c10 0.4 36.3 1.5 53.2-0.4l-1.1-17.8c0.3-20.9-6.1-38.7-12.1-51-15.4-2.8-19.7-14.2-20.6-17.4-0.1-0.6-0.2-0.9-0.2-0.9l1.1-0.2c0 0.1 0.1 0.5 0.3 1.1 1 3.4 5.1 13.3 18.7 16.1-4.1-8-8-13.5-9.6-15.7-0.5-0.6-0.8-1-0.8-1l0.8-0.7c0 0 0.6 0.6 1.4 1.8 5.2 7 22.5 33.3 22.1 67.8l1.1 17.8c2.9-0.4 5.6-0.8 7.8-1.4z"/>
				</g>
			</g>
			<path id="&lt;Path&gt;" class="s19" d="m314.3 243.8q-16.9 2.8-23.3 6.5c-6.4 3.7-27.2 6.6-33.1 0q-5.9-6.6 3.5-23.4 63.7-25 72.6-20.1z"/>
			<path id="&lt;Path&gt;" class="s13" d="m390.3 153.8q13.1 5 18 20.2c4.8 15.1-9.6 53.5-4.6 71.2 4.9 17.6 4.2 50.9-11.4 57.9-15.5 7.1-47.3-5.5-54.2-24.8-6.8-19.2-3.9-92.1 9.3-116.9 13.1-24.8 39.7-12.3 42.9-7.6z"/>
			<path id="&lt;Path&gt;" class="s19" d="m375.2 219.1q3.4 3.8 12.4-2.9-0.2 33.1-9.8 35.6c-9.6 2.6-34.1-26-33.1-33.8 1-7.8 22.8-7.2 30.5 1.1z"/>
			<path id="&lt;Path&gt;" class="s1" d="m338.1 210.9q9.7 8.2 26.7 12.2c16.9 3.9 26.1-4.1 34.8 6.8 13 16.4-8.2 46.7-19.3 62.3-4.2 5.9-12.9 22.1-14.7 37.6q-29.4 8.5-54.7-2.6l-1.9-36q-16-48.6 29.1-80.3z"/>
			<path id="&lt;Path&gt;" class="s19" d="m368.5 246q13.4-32.1 17.3-34.1c3.9-2 13.8 2.9 15.8 7.2q1.9 4.4 0 14-10.6-12.1-33.1 12.9z"/>
			<path id="&lt;Path&gt;" class="s8" d="m432.8 381.2q-6.1 12.5-21.1 16.1-1.1-1.7-3-4.8-0.3-0.5-0.6-1.1c-11.8-19.1-47.9-80.2-47.2-112.1q0.9-38 25.7-58.9 12.6 3 16.5 6.5 4.3 21.6 0.4 47.6c-3.9 26-11 32.9-7.4 34.9q3.5 1.9 0 5.8 20.9 29.1 24.8 38.2c2.5 5.9 6.8 15.9 9.5 22.2q0.3 0.6 0.6 1.3 1.1 2.6 1.8 4.3z"/>
			<path id="&lt;Path&gt;" class="s3" d="m454.2 297.8q0 10.8-57.7 55.1l-6.2-9.7c16.4-11.1 18.7-21.1 41.5-45.4l-41.5-42.9q-8.7-16.9 6.2-28c22.5 10.5 57.8 66.3 57.7 70.9z"/>
			<path id="&lt;Path&gt;" class="s3" d="m396.4 354.1c-4.6 3.5-10.4 2.2-14 6.3q-3.6 4-5.4 3 1.8-2.1 3.5-6.4-9.2 3.1-9.6 1.8-0.4-1.2 7-5.8-11.8 2.5-11.6 1.1 0.2-1.5 9.4-5.2-11.2 1-11 0c0.2-1.1 6.8-2.3 11.8-3.5q5-1.3 12.9-2.2c4.1-0.5 11.5 7.3 7 10.9z"/>
			<path id="&lt;Path&gt;" class="s8" d="m347 216.2q-11.4 7.4-18.6 25.1c-7.2 17.8-29.8 51.2-35.1 59.8q-5.4 8.7-1.7 55.7-6.6-28.5-9.6-39.6c-2.9-11.1 9.6-38.6 11.5-40 1.8-1.5 11.5 1.2 9.6-9.9-1.8-11.2 24-59.2 30.9-60.5q11 2 13 9.4z"/>
			<path id="&lt;Path&gt;" class="s8" d="m311.8 218.6q-0.3 0.6-0.7 1.1-2.6 3.7-7.4 6.7-8.6 12.1-8.7 13.5c-0.1 1.2-15.1 12.1-21.8 11.9-0.9 0-1.7-0.3-2.2-0.8-3.9-3.7 13.5-35 17.3-41.7q0.4-0.7 0.6-1 0.1-0.2 0.1-0.3-3-11.4 9.8-9.3c10.6 1.7 12.7 10.2 13.8 15.9 0.3 1.3-0.1 2.7-0.8 4z"/>
			<path id="&lt;Path&gt;" class="s3" d="m267.1 230.4c8.8-11.5 39.8-33.9 56-40.5l4.1 7.5q-31.5 27.7-38.9 39.5c-7.3 11.9-16.5 16.7-25.3 12.8-8.7-3.9 2.3-16.8 4.1-19.3z"/>
			<path id="&lt;Path&gt;" class="s19" d="m308.7 216.2l-1.6 1.9-0.9 1-2.7 3.2q-6.9 8.4-6.7 11.7c0.2 2.5-13.1 13.3-23.6 17.8-4.2 1.8-8 2.6-10.2 1.4-7.5-4.4-5.8-17.5-1.6-26.3 3.8-7.7 20.3-17.7 24.5-20.2q0.8-0.5 1-0.5 0-0.1 0-0.1l1.6-6.1q5.7-3.4 10.3-1.3-10 0.4-8.4 4.3c1.7 3.9 15.6 13.1 18.3 13.2z"/>
			<g id="&lt;Group&gt;">
				<path id="&lt;Path&gt;" class="s3" d="m345 184.2c-10 4.1-8.6 13.2-17.8 13.2q-5.7 0-6.5-6.5c2.6-5.6 4.3-15.1 4.6-19.6q0.4-4.5 1.9-2.8 0-0.6 0-1.2c-0.2-3.1-0.7-5.3 1.3-4q2.2 1.5 3 10.1c1.9-12.6-0.9-14.4 1.3-13.3 2.9 1.5 3 12.6 3 12.9 2.4-7.3 1.7-11.4 3.4-9.8 1.7 1.7-0.9 15.1-1.9 20.1q-0.2 1.1-0.3 1.7 7.9-3.9 8-0.8z"/>
				<path id="&lt;Path&gt;" class="s2" d="m337.3 183.3q-0.2 1.1-0.3 1.7-3.7-0.3-6.4 3.7 0.7-5.4 6.7-5.4z"/>
				<path id="&lt;Path&gt;" class="s2" d="m327.8 177.5c0-1 0.5-7.2-0.6-9q0-0.6 0-1.2c2.3 0.5 0.8 8.9 0.6 10.2z"/>
			</g>
			<path id="&lt;Path&gt;" class="s19" d="m334 230.5q6.8-18.4 9-22.5c2.1-4.2 13.4-3.4 21.9-1.9q8.5 1.6 10.3 13-26-12.2-41.2 11.4z"/>
			<path id="&lt;Path&gt;" class="s2" d="m377.8 194.2q-8.2 15.1-8.1 31.7-13.2 9-17.9-2.2 5-14.8 2.6-34.7-1.6-13.3 23.4 5.2z"/>
			<g id="&lt;Group&gt;">
				<path id="&lt;Path&gt;" class="s3" d="m347.8 183c-2.6 1.7-7.7-5.2-2.7-12.2q4.3-6.1 6.7 2.6-1.3 8-4 9.6z"/>
				<path id="&lt;Path&gt;" class="s3" d="m390.2 195.5q8.7-2.4 5.7 4.5c-3.4 7.9-11.9 7.1-11.9 3.9q0.1-3.1 6.2-8.4z"/>
				<path id="&lt;Path&gt;" class="s3" d="m355.3 211c-12.2-6.9-14.6-18.8-1.1-42.8 6.9-12.4 17.5-16.5 31.2-8.7 13.8 7.7 15.3 18.5 8.3 30.9-14.5 25.8-25.7 27.7-38.4 20.6z"/>
				<path id="&lt;Path&gt;" class="s6" d="m384.8 196.7c-0.5 1.4-2.2 2-3.9 1.4-1.7-0.6-2.7-2.2-2.2-3.6 0.5-1.3 2.2-1.9 3.9-1.3 1.7 0.6 2.7 2.1 2.2 3.5z"/>
				<path id="&lt;Path&gt;" class="s6" d="m359.2 183.2c-0.7 1.2-2.6 1.4-4.1 0.4-1.5-1-2.1-2.8-1.3-4 0.8-1.2 2.6-1.4 4.1-0.4 1.5 1 2.1 2.8 1.3 4z"/>
				<g id="&lt;Group&gt;">
					<path id="&lt;Path&gt;" class="s7" d="m386.6 181.2c-0.3 0-0.6-0.2-0.7-0.6-0.7-2.7-3.7-4.3-3.8-4.3-0.3-0.2-0.4-0.6-0.3-1 0.2-0.3 0.6-0.4 1-0.3 0.1 0.1 3.6 2 4.5 5.3 0.1 0.4-0.2 0.8-0.6 0.9q0 0-0.1 0z"/>
				</g>
				<g id="&lt;Group&gt;">
					<path id="&lt;Path&gt;" class="s7" d="m369.7 169.2q-0.1 0-0.3-0.1c0 0-3-1.8-5.7-0.9-0.4 0.1-0.8-0.1-0.9-0.5-0.1-0.4 0.1-0.8 0.5-0.9 3.3-1 6.7 1 6.8 1.1 0.3 0.2 0.5 0.6 0.3 1-0.2 0.2-0.4 0.3-0.7 0.3z"/>
				</g>
				<path id="&lt;Path&gt;" class="s7" d="m381.5 187c-0.8 1.5-2.2 2.4-3.1 1.9-0.8-0.5-0.8-2.1 0.1-3.6 0.8-1.6 2.2-2.4 3-1.9 0.9 0.5 0.9 2.1 0 3.6z"/>
				<path id="&lt;Path&gt;" class="s7" d="m364.3 177.8c-0.8 1.5-2.2 2.3-3 1.9-0.9-0.5-0.9-2.1 0-3.6 0.8-1.6 2.2-2.4 3.1-1.9 0.8 0.4 0.8 2.1-0.1 3.6z"/>
				<path id="&lt;Path&gt;" class="s7" d="m358.4 193.4q7 5.4 12.1 5.5-5.4 4.4-9.3 1.6-3.9-2.9-2.8-7.1z"/>
				<path id="&lt;Path&gt;" class="s7" d="m382.8 181.2q1.4 0.8 0.7 4.8l2.3 0.9-2.8-0.1q0.7-3.8-0.6-4.9-1.4-1.1-4.6 2 2.9-3.9 5-2.7z"/>
				<path id="&lt;Path&gt;" class="s7" d="m365.7 177.7q1-4.4-0.7-5-1.6-0.5-4.5 2.1l-1.5-2.4 2 1.5q3-2.7 4.5-1.9 2 1.2 0.2 5.7z"/>
				<path id="&lt;Path&gt;" class="s13" d="m388.7 164.6q-4.4-6.1-10.4-1.3c-6.1 4.9-19.8 12.6-26.5 10.1-6.7-2.6 14.7-31.3 33.3-22.9 18.6 8.4 17 35.8 9.2 44.4q-7.7 8.7-4.1 0.6 0.6-12.3 3.1-20.5 2.6-8.1-4.6-10.4z"/>
				<g id="&lt;Group&gt;">
					<path id="&lt;Path&gt;" class="s6" d="m368.1 190.6q-0.5 0-1.1-0.1l0.4-1.5c1.2 0.3 1.8-0.2 2.1-0.7 0.5-0.7 0.4-1.7 0.1-2q-0.3-0.3-1 0.1l-0.7-1.4c1.5-0.8 2.4-0.1 2.8 0.2 0.8 0.9 0.9 2.6 0.1 3.8-0.5 1.1-1.5 1.6-2.7 1.6z"/>
				</g>
			</g>
			<g id="&lt;Group&gt;">
				<path id="&lt;Path&gt;" class="s19" d="m457.8 296.1c-0.7 10.8-27.4 45.9-31.8 47.1-1.2 0.3-2.3 1-3.5 1.7q-0.7 0.5-1.3 1.1-2.6 2-4.5 4.4c-7.7-0.5-29.6-10.6-22.6-12.9q0.7-0.2 1.4-0.7 0.5-0.3 1-0.7c8.2-6.9 24.3-35.1 24.4-37.2q0.1-2.3 2.9-2.8-15.2-22.2-24-24.9-8.8-2.7-13.2-13.3-8.7-36.8 16.5-31c18.6 11.1 55.4 58.4 54.7 69.2z"/>
				<g id="&lt;Group&gt;">
					<path id="&lt;Path&gt;" class="s20" d="m422.5 344.9q-0.7 0.5-1.3 1.1c-12-0.9-21.9-6.7-25.7-9.2q0.5-0.3 1-0.7c3.9 2.6 14.1 8.4 26 8.8z"/>
				</g>
			</g>
			<g id="&lt;Group&gt;">
				<path id="&lt;Path&gt;" class="s20" d="m311.8 218.6q-0.3 0.6-0.7 1.1-2.5-0.1-4.9-0.6c-7.8-1.6-13.9-6-17.9-9.8q-1.4-1.4-2.4-2.6 0.8-0.5 1-0.5 0.9 0.9 2 2.1c3.9 3.8 10.1 8.4 18.2 9.8q2.2 0.5 4.7 0.5z"/>
			</g>
			<g id="&lt;Group&gt;">
				<path id="&lt;Path&gt;" class="s20" d="m431 376.9c-3.7 6.2-10.5 13.6-22.3 15.6q-0.3-0.5-0.6-1.1c12.1-1.8 18.8-9.7 22.3-15.8q0.3 0.6 0.6 1.3z"/>
			</g>
			<g id="&lt;Group&gt;">
				<path id="&lt;Path&gt;" class="s5" d="m228.9 578.9q-2.8 2.7-5.7 7.8c-2.9 5 0.3 9.6-13.7 21.2q-28.1-16.5-40.9-37.7 0.3-6 6.4-7.5c3.3-0.7 12.4 3.5 21.2 5.2 1.2 0.2 2.5 0.4 3.7 0.5 1.5 0.1 3 0.2 4.5 0q2-0.2 3.7-0.9h0.1c2.9-1.3 5.3-3.7 6.5-7.9q7.5 4.2 2.5 11.5 8.9-3.9 11.7 7.8z"/>
				<path id="&lt;Path&gt;" class="s0" d="m209.5 607.9q-28.1-16.5-40.9-37.7 4.8-1 8.7 6c3.9 7.1 34.5 23 32.2 31.7z"/>
				<path id="&lt;Path&gt;" class="s0" d="m209.6 574.6c-2.2 3.6-2.2-3.1-5.2-6.2q2-0.2 3.7-0.9h0.1c1.3 1.4 3.2 4.3 1.4 7.1z"/>
				<path id="&lt;Path&gt;" class="s0" d="m200.8 574.8c-2.4 2.3-3.2-3.7-4.6-6.9 1.2 0.2 2.5 0.4 3.7 0.5 1.4 1.9 2.7 4.6 0.9 6.4z"/>
			</g>
			<g id="&lt;Group&gt;">
				<path id="&lt;Path&gt;" class="s5" d="m402.2 652.1h-39.8q-1.7-5.5 0-11.6c0.7-2.7 4.8-5.2 8.7-8.6 1-1 2-1.9 3-3.1q1.1-1.3 2-2.9c0.7-1.3 1.3-2.6 1.7-4.1 0.6-3.1 0.4-6.6-1.4-10.9q13.6-2.8 18.4 4.6 0.5-3.4 4.8-1.2-0.6 6.9 0.2 12.7c0.9 5.7 6.2 7.3 2.4 25.1z"/>
				<path id="&lt;Path&gt;" class="s0" d="m391.9 628.1c-0.4 0.4-0.9 0.6-1.4 0.6q-0.6 0-1.2-0.4c-2-1.6-6.6-4.2-13.2-2.4 0.7-1.3 1.3-2.6 1.7-4.1 2.6-1 7.6-1.6 13.8 3.7 0.8 0.7 0.9 1.8 0.3 2.6z"/>
				<path id="&lt;Path&gt;" class="s0" d="m388.5 634.7l-0.2 0.4c-0.6 0.8-1.6 1-2.5 0.6-2.7-1.6-8.8-4.7-14.7-3.8 1-1 2-1.9 3-3.1 2.9-0.7 8.5-1 14 3.5 0.7 0.6 0.9 1.6 0.4 2.4z"/>
			</g>
		</g>
	</g>
</svg>