<svg version="1.2" xmlns="http://www.w3.org/2000/svg" viewBox="0 0 1281 830" width="1281" height="830">
	<title>5259950-ai</title>
	<style>
		.s0 { fill: #d4ede9 } 
		.s1 { fill: #f7cf4d } 
		.s2 { fill: #0b4665 } 
		.s3 { fill: #f8a706 } 
		.s4 { fill: #0b4169 } 
		.s5 { fill: #188991 } 
		.s6 { fill: #ffffff } 
		.s7 { fill: #f7a806 } 
		.s8 { fill: #1a8b91 } 
		.s9 { fill: #b3dac9 } 
		.s10 { fill: #f48f8f } 
		.s11 { fill: #074066 } 
		.s12 { fill: #afc1d1 } 
		.s13 { fill: #106578 } 
		.s14 { fill: #ce6161 } 
	</style>
	<g id="BACKGROUND">
		<g id="&lt;Group&gt;">
		</g>
	</g>
	<g id="OBJECTS">
		<g id="&lt;Group&gt;">
			<g id="&lt;Group&gt;">
				<g id="&lt;Group&gt;">
					<g id="&lt;Group&gt;">
						<path id="&lt;Path&gt;" class="s0" d="m1129 752h-976.6q-97.7-385.2 323.9-512.2c421.6-126.9 789.8 257.2 652.7 512.2z"/>
					</g>
				</g>
			</g>
			<g id="&lt;Group&gt;">
				<g id="&lt;Group&gt;">
					<g id="&lt;Group&gt;">
						<path id="&lt;Compound Path&gt;" class="s1" d="m529.6 552.2h117.8v72.6h-117.8zm253.8-270.9c-12.2 71.4-80.3 112.3-111.2 137.3-17.9 14.6-23.4 46.5-24.8 70.6v30.7h-117.8c-13.4-141.7 31.3-168 69.1-193.4 37.8-25.3 35.8-46.7 27.8-69.3-7.9-22.6-38.2-37.5-64.6-28.6q-26.3 8.9-41.7 56.2l-83-10.7c6.7-139.4 86.2-190.2 169.9-200.5 97-11.9 202.4 54.1 176.3 207.7z"/>
					</g>
				</g>
			</g>
		</g>
		<g id="&lt;Group&gt;">
			<g id="&lt;Group&gt;">
				<g id="&lt;Group&gt;">
					<path id="&lt;Path&gt;" class="s2" d="m1120.8 418.7h8.2v333.3h-8.2z"/>
				</g>
			</g>
			<g id="&lt;Group&gt;">
				<g id="&lt;Group&gt;">
					<path id="&lt;Path&gt;" class="s3" d="m1228.4 472.2h-99.4v-53.5h99.4l15.6 26.7z"/>
				</g>
			</g>
			<g id="&lt;Group&gt;">
				<g id="&lt;Group&gt;">
					<path id="&lt;Path&gt;" class="s3" d="m1244 568.1h-115v-60.6h115l25.1 30.3z"/>
				</g>
			</g>
			<g id="&lt;Group&gt;">
				<g id="&lt;Group&gt;">
					<path id="&lt;Path&gt;" class="s3" d="m1023.8 504.3l22.8-24.8h74.2v49.6h-74.2z"/>
				</g>
			</g>
		</g>
		<g id="&lt;Group&gt;">
			<g id="&lt;Group&gt;">
				<g id="&lt;Group&gt;">
					<path id="&lt;Compound Path&gt;" fill-rule="evenodd" class="s4" d="m943.5 302.6c-0.6 0-1.1-0.2-1.5-0.6-0.8-0.9-0.7-2.1 0.1-2.9 0.1-0.1 6.4-5.9 12-16-6.8-1.1-13-2.7-18.2-4.8-14.7-5.8-23-15-23.3-25.8-0.5-21 12.4-30.9 25.3-31.3 13.5-0.5 28.1 8.7 28.9 26.6 0.6 12.6-2.4 23.5-6.5 32.2 41 4.6 104.2-8.8 152.7-58.3 0.8-0.7 2-0.8 2.8 0 0.8 0.8 0.8 2.1 0 2.8-49.8 50.9-115.3 64.4-157.3 59.2-6 11.3-13.2 17.9-13.7 18.4-0.4 0.3-0.9 0.5-1.3 0.5zm-4.6-77.5q-0.4 0-0.8 0.1c-10.2 0.3-21.9 7.7-21.5 27.2 0.3 9.1 7.6 17 20.8 22.2 5.3 2.1 11.6 3.7 18.7 4.8 4.1-8.4 7.3-19.1 6.7-31.4-0.7-15-12.6-22.9-23.9-22.9z"/>
				</g>
			</g>
			<g id="&lt;Group&gt;">
				<g id="&lt;Group&gt;">
					<path id="&lt;Compound Path&gt;" fill-rule="evenodd" class="s4" d="m85.2 366.4c-27 0-49.3-7.5-59-21.8-7.5-11-10.8-30.7 16.4-62.1 0.7-0.8 2-0.9 2.8-0.2 0.8 0.8 0.9 2 0.2 2.9-20.2 23.2-25.8 43-16.1 57.2 15 22 65.9 26.4 113.3 9.6 11.2-3.9 23.3-9.1 35.1-15.2q-6.2-6.6-8.7-14.3c-3.7-11.2-1.8-24 5.8-38.1 7.8-14.5 31.1-28.4 48-28.6 8.1-0.2 14.3 2.8 17.6 8.7 3.1 5.4 3.3 12.4 0.4 20.2-5.6 15.2-23.2 35.3-56.2 53.3q7.3 6.4 18.7 11.6c40.3 18.7 96.5-13 97-13.3 1-0.6 2.2-0.2 2.7 0.7 0.6 1 0.3 2.2-0.7 2.7-0.6 0.4-14.7 8.4-34.2 14.2-18.1 5.4-44.4 9.6-66.5-0.7q-12.7-5.9-20.8-13.2c-10.7 5.5-23 10.9-36.9 15.8-20.1 7.1-40.6 10.5-58.9 10.6zm138.3-106.7q-0.3 0-0.5 0.1c-15.4 0.2-37.4 13.3-44.5 26.5-7 13.1-8.9 24.8-5.5 34.9q2.4 7.3 8.6 13.7c25.3-13.7 48.3-31.7 55.6-51.6 2.5-6.7 2.5-12.5 0-16.8-2.6-4.5-7.2-6.8-13.7-6.8z"/>
				</g>
			</g>
		</g>
		<g id="&lt;Group&gt;">
			<g id="&lt;Group&gt;">
				<g id="&lt;Group&gt;">
					<g id="&lt;Group&gt;">
						<path id="&lt;Path&gt;" class="s5" d="m995.8 716.3c-9.7-43.6 1.2-44.5 3.8-47.8 2.6-3.4 5.6-10.8 5.2-26.1-0.3-15.3 12.7-27.6 14.6-29.8 1.8-2.2 14.1-25.7 32-40.6 17.9-14.9 25.4-9 24.3 7-1.2 16.1-7.5 30.2-21.3 44-13.8 13.8-9.9 20.1-7.9 26.6 1.9 6.5-0.5 20.9-5.5 25.9-5 4.9-12.4 12.4-12.9 27.3-1 25.3-3 20.4-10.5 31.8q-11.9 22.4-27.3 14.9c-9.7-12.9 3.7-24 5.5-33.2z"/>
					</g>
				</g>
				<g id="&lt;Group&gt;">
					<g id="&lt;Group&gt;">
						<path id="&lt;Path&gt;" class="s4" d="m953.8 720.3c-1.5-10.4-3.7-10.1-14.2-16.8-10.4-6.7-15.3-16.4-13.8-26.1 1.5-9.7 1.1-19.3-3-27.9-4.1-8.6-16.7-29.1-19-35-5.2-39.2 9.4-34.7 11.6-31.4 2.2 3.4 12.7 13.5 25.7 24.3 13.1 10.8 11.2 24.6 12.7 29 1.5 4.5 16.4 18.3 21.6 28.7q5.2 10.5 6 38.1 12.3 5.2 15.2 15.2 3 10.1-6.3 31.1c-20.1 3.1-35-18.8-36.5-29.2z"/>
					</g>
				</g>
				<g id="&lt;Group&gt;">
					<g id="&lt;Group&gt;">
						<path id="&lt;Path&gt;" class="s6" d="m984.9 749.4l-51.7-118.7 53.5 117.9c0.3 0.5 0.1 1.1-0.5 1.3-0.5 0.2-1 0-1.3-0.5q0 0 0 0z"/>
					</g>
				</g>
				<g id="&lt;Group&gt;">
					<g id="&lt;Group&gt;">
						<path id="&lt;Path&gt;" class="s6" d="m996.3 745.2c4-12.2 8-24.5 11.8-36.8 1.9-6.1 3.8-12.3 5.4-18.5q2.4-9.4 5.2-18.7c3.7-12.3 7.8-24.6 12.7-36.5 2.5-6 5-11.9 8-17.6 3.1-5.7 6.4-11.3 10.5-16.2-4.1 5-7.3 10.6-10.2 16.3-3 5.7-5.5 11.7-7.9 17.7-4.6 12-8.6 24.2-12.1 36.6q-2.7 9.3-5 18.7c-1.6 6.3-3.4 12.5-5.2 18.6-3.7 12.4-7.5 24.7-11.3 37-0.2 0.6-0.7 0.9-1.3 0.7-0.5-0.2-0.8-0.7-0.6-1.3q0 0 0 0z"/>
					</g>
				</g>
				<g id="&lt;Group&gt;">
					<g id="&lt;Group&gt;">
						<path id="&lt;Path&gt;" class="s4" d="m994.7 715.2c-0.5 0-0.9-0.3-1-0.8 0-0.4-4.1-32.6-5.8-71.9-1.6-36.3-1.4-86.2 8.4-117.9 0.1-0.6 0.7-0.9 1.2-0.7 0.5 0.2 0.8 0.7 0.7 1.3-18.7 60.2-2.6 187.6-2.5 188.9 0.1 0.6-0.3 1.1-0.8 1.1q-0.1 0-0.2 0z"/>
					</g>
				</g>
				<g id="&lt;Group&gt;">
					<g id="&lt;Group&gt;">
						<path id="&lt;Path&gt;" class="s4" d="m997.2 524.9q5.3-19.4 11.2-25.6c6-6.2 13.7-1.8 11.5 10.7q-2.3 12.4-22.7 14.9z"/>
					</g>
				</g>
				<g id="&lt;Group&gt;">
					<g id="&lt;Group&gt;">
						<path id="&lt;Path&gt;" class="s4" d="m991.6 551.3q12.2-19 17.1-19.2c5-0.3 8.9 4.5 3.7 12.7q-5.2 8.2-22 16.4z"/>
					</g>
				</g>
				<g id="&lt;Group&gt;">
					<g id="&lt;Group&gt;">
						<path id="&lt;Path&gt;" class="s4" d="m989.9 565.7q-10.7-7.3-12.9-13.9c-2.2-6.6-1.5-16.2 2.5-16.2 4 0 9.3 9.4 10.9 21.5z"/>
					</g>
				</g>
				<g id="&lt;Group&gt;">
					<g id="&lt;Group&gt;">
						<path id="&lt;Path&gt;" class="s4" d="m994.7 534.4q-7.8-7.4-7.9-15.7c-0.1-8.4 3.4-14.7 7.9-10.1q4.4 4.6 0.7 22.6z"/>
					</g>
				</g>
				<g id="&lt;Group&gt;">
					<g id="&lt;Group&gt;">
						<path id="&lt;Path&gt;" class="s4" d="m988.4 589.9q8.6-15.6 11.8-19.7c3.3-4.1 11.5-5.4 9.2 7.7-2.2 13.2-18.2 21.3-21 21.1z"/>
					</g>
				</g>
				<g id="&lt;Group&gt;">
					<g id="&lt;Group&gt;">
						<path id="&lt;Path&gt;" class="s4" d="m988.4 599q1.7-1.3-0.3 0c-1.9 1.4-11.3-0.2-14.2-11.8-2.9-11.5 5.6-12.6 8.6-10.4q3 2.2 5.9 11.1z"/>
					</g>
				</g>
				<g id="&lt;Group&gt;">
					<g id="&lt;Group&gt;">
						<path id="&lt;Path&gt;" class="s4" d="m988.4 630.1q5.8-21 10.7-27.1c5-6.1 11-6.8 10.7 3.9-0.2 10.7-18.1 24-21.3 25.7z"/>
					</g>
				</g>
				<g id="&lt;Group&gt;">
					<g id="&lt;Group&gt;">
						<path id="&lt;Path&gt;" class="s4" d="m989.3 651.2q8.7-14.3 13.2-16.3c4.5-1.9 9.4 11.9 0 19.1q-9.5 7.2-12.7 6.1z"/>
					</g>
				</g>
				<g id="&lt;Group&gt;">
					<g id="&lt;Group&gt;">
						<path id="&lt;Path&gt;" class="s4" d="m989.3 660.7q-11.8-1-17.8-9.5c-5.9-8.4-3.1-15.9 1.8-15.5 5 0.4 12.3 12.5 16 25z"/>
					</g>
				</g>
				<g id="&lt;Group&gt;">
					<g id="&lt;Group&gt;">
						<path id="&lt;Path&gt;" class="s4" d="m988.1 628q-6 0.9-14.8-8.4c-8.7-9.4-5.4-18.3 2.6-14.2q7.9 4.1 12.5 21.2z"/>
					</g>
				</g>
				<g id="&lt;Group&gt;" style="opacity: .5">
					<g id="&lt;Group&gt;">
						<path id="&lt;Path&gt;" class="s5" d="m1038.5 341c0.8-4 10.2-3.7 11.9-2.2 1.8 1.5 3.8 3.2 2.3 8.4q-1.5 5.2-11.7 2.2-3.2-4.4-2.5-8.4z"/>
					</g>
				</g>
				<g id="&lt;Group&gt;" style="opacity: .5">
					<g id="&lt;Group&gt;">
						<path id="&lt;Path&gt;" class="s5" d="m971.3 353.2c-3-23.5 10.1-35.8 17.1-35.4 7.1 0.3 34 6.3 34 20q0 13.6-16.1 22.8c-14.5 10.5-33.9-0.3-35-7.4z"/>
					</g>
				</g>
				<g id="&lt;Group&gt;" style="opacity: .5">
					<g id="&lt;Group&gt;">
						<path id="&lt;Path&gt;" class="s5" d="m940.4 530.3c1.7-0.7 11.1-4.4 8.7 5.3q-2.5 9.6-11.2 6.7c-7-4.5 0.7-11.2 2.5-12z"/>
					</g>
				</g>
				<g id="&lt;Group&gt;" style="opacity: .5">
					<g id="&lt;Group&gt;">
						<path id="&lt;Path&gt;" class="s5" d="m895.1 520.7c-5.9-20 8.7-26.1 17.7-26.1 8.9 0 22.1 4.4 20.1 20.8q-2 16.4-18.1 15.4c-12.7 1-18.4-4.7-19.7-10.1z"/>
					</g>
				</g>
			</g>
			<g id="&lt;Group&gt;">
				<g id="&lt;Group&gt;">
					<g id="&lt;Group&gt;">
						<path id="&lt;Path&gt;" class="s5" d="m184.9 693.8c-5.3-19.7-1.5-47.3 5.6-54.4 7.1-7.1 6.7-24.2 4.4-42.3-2.2-18 1.1-41.2 7.5-50.5 6.3-9.3 23.8-48.4 34.3-64.5 10.4-16 25.7-21.6 29-11.1 3.4 10.4 1.9 26.8-1.8 39.8-3.8 13.1-7.5 32.5-5.6 50 1.8 17.5-4.9 30.9-9.7 36.3-4.9 5.5-9.7 14.4-9.7 35.6 0 21.3-5.6 31.7-10.8 43.2-5.2 11.6-0.4 6.8-5.8 41q-5.4 34.3-34.1 30.6c-10.1-4.1 1.9-33.9-3.3-53.7z"/>
					</g>
				</g>
				<g id="&lt;Group&gt;">
					<g id="&lt;Group&gt;">
						<path id="&lt;Path&gt;" class="s4" d="m110.2 693.3c13.9-10.9-9.5-32.8-16.4-38.7-7-6-7.5-17.9-7.5-27.8 0-10-1.5-29.9-11.9-62.2-10.4-32.3 16.9-68.1 15.4-84.5-1.5-16.4 6.5-41.2 13.9-37.5 7.5 3.6 10 26.1 10 43 0 16.9 0 30.3 23.8 60.1 23.9 29.9-7.9 66.1 18.9 100.9 26.8 34.8 20.9 58.7 27.8 67.1q7 8.5 6.2 33.8c-66.8-1-94.1-43.2-80.2-54.2z"/>
					</g>
				</g>
				<g id="&lt;Group&gt;">
					<g id="&lt;Group&gt;">
						<path id="&lt;Path&gt;" class="s6" d="m182.4 747.1c-9.4-15.5-18.1-31.4-26.2-47.5q-12.3-24.1-22.8-49.1c-7-16.7-13.1-33.6-18.5-50.9-5.3-17.2-9.5-34.8-12.4-52.6 3.1 17.8 7.4 35.3 12.8 52.5 5.6 17.1 11.9 34 19 50.6q10.8 24.8 23.2 48.9c8.3 15.9 17.1 31.7 26.6 47 0.3 0.5 0.1 1.1-0.3 1.4-0.5 0.3-1.1 0.1-1.4-0.3z"/>
					</g>
				</g>
				<g id="&lt;Group&gt;">
					<g id="&lt;Group&gt;">
						<path id="&lt;Path&gt;" class="s6" d="m187.3 746.1c6.1-15.3 11.1-31.2 15.2-47.3 4.2-16 6.2-32.6 9.4-48.9 3.1-16.4 6.3-32.7 9.7-49 3.4-16.2 6.7-32.5 10.6-48.7-3.8 16.2-6.9 32.5-10.1 48.8-3.2 16.4-6.3 32.7-9.2 49.1-3 16.3-4.9 32.9-9 49.1-3.9 16.2-8.8 32.1-14.8 47.7-0.2 0.5-0.7 0.8-1.3 0.6-0.5-0.2-0.7-0.8-0.5-1.3z"/>
					</g>
				</g>
				<g id="&lt;Group&gt;" style="opacity: .5">
					<g id="&lt;Group&gt;">
						<path id="&lt;Path&gt;" class="s5" d="m279.5 682.7c-0.7-10.9 14.9-14.2 17.9-9.7q3 4.4-1.9 16c-5.9 0-15.2 4.5-16-6.3z"/>
					</g>
				</g>
				<g id="&lt;Group&gt;" style="opacity: .5">
					<g id="&lt;Group&gt;">
						<path id="&lt;Path&gt;" class="s5" d="m295.5 630.5c3.8-6.7 30.6-17.2 35.5 4.4q4.8 21.7-10.5 28c-33.9 2.6-28.7-25.7-25-32.4z"/>
					</g>
				</g>
				<g id="&lt;Group&gt;" style="opacity: .5">
					<g id="&lt;Group&gt;">
						<path id="&lt;Path&gt;" class="s5" d="m188.2 400.5c-0.4-4.1 11.6-7.1 13.8 0q2.2 7.1-5.6 6.3c-2.2 0.1-7.8-2.2-8.2-6.3z"/>
					</g>
				</g>
				<g id="&lt;Group&gt;" style="opacity: .5">
					<g id="&lt;Group&gt;">
						<path id="&lt;Path&gt;" class="s5" d="m225 424.4c7 3.7 7.6 10.8 7.2 20.1-0.4 9.3-9.7 15.3-25.7 8.9q-16.1-6.3-14.2-20.8c-1.1-20.9 25.7-12 32.7-8.2z"/>
					</g>
				</g>
			</g>
		</g>
		<g id="&lt;Group&gt;">
			<g id="&lt;Group&gt;">
				<g id="&lt;Group&gt;">
					<g id="&lt;Group&gt;">
						<g id="&lt;Group&gt;">
							<path id="&lt;Path&gt;" class="s7" d="m337.3 243c0 5.1-1.8 9.9-4.8 13.6q0.5 0.5 1.1 1.1l1.7 17.7-21.5-10.4h-74.8c-12.1 0-22-9.9-22-22v-26.1c0-12.1 9.9-22 22-22h76.3c12.1 0 22 9.9 22 22z"/>
						</g>
					</g>
				</g>
				<g id="&lt;Group&gt;">
					<g id="&lt;Group&gt;">
						<g id="&lt;Group&gt;">
							<path id="&lt;Path&gt;" class="s6" d="m305.2 221.6c0 2.7-2.1 4.8-4.8 4.8h-58.5c-2.7 0-4.9-2.1-4.9-4.8 0-2.7 2.2-4.8 4.9-4.8h58.5c2.7 0 4.8 2.1 4.8 4.8z"/>
						</g>
					</g>
					<g id="&lt;Group&gt;">
						<g id="&lt;Group&gt;">
							<path id="&lt;Path&gt;" class="s6" d="m285.5 243.2c0 2.5-2 4.5-4.5 4.5h-39.5c-2.5 0-4.5-2-4.5-4.5 0-2.5 2-4.5 4.5-4.5h39.5c2.5 0 4.5 2 4.5 4.5z"/>
						</g>
					</g>
				</g>
			</g>
			<g id="&lt;Group&gt;">
				<g id="&lt;Group&gt;">
					<g id="&lt;Group&gt;">
						<g id="&lt;Group&gt;">
							<g id="&lt;Group&gt;">
								<path id="&lt;Path&gt;" class="s8" d="m822.2 26.9v20.4c0 9.9-8 17.9-17.9 17.9h-31.5c-4.1 1.6-5.5 5-5.5 7.5 0 2.9 0.8 8.5-1.6 5.8-3.8-2.9-7.6-9.3-9.8-13.3h-34c-9.8 0-17.8-8-17.8-17.9v-20.4c0-9.9 8-17.9 17.8-17.9h82.4c9.9 0 17.9 8 17.9 17.9z"/>
							</g>
						</g>
					</g>
					<g id="&lt;Group&gt;">
						<g id="&lt;Group&gt;">
							<path id="&lt;Path&gt;" class="s6" d="m811.8 26.7c0 2.4-1.5 4.4-3.4 4.4h-89.1c-1.8 0-3.3-2-3.3-4.4 0-2.5 1.5-4.5 3.3-4.5h89.1c1.9 0 3.4 2 3.4 4.5z"/>
						</g>
					</g>
					<g id="&lt;Group&gt;">
						<g id="&lt;Group&gt;">
							<path id="&lt;Path&gt;" class="s6" d="m800.7 47.3c0 2.4-1.1 4.4-2.5 4.4h-79.7c-1.4 0-2.5-2-2.5-4.4 0-2.4 1.1-4.4 2.5-4.4h79.7c1.4 0 2.5 2 2.5 4.4z"/>
						</g>
					</g>
				</g>
				<g id="&lt;Group&gt;">
					<g id="&lt;Group&gt;">
						<g id="&lt;Group&gt;">
							<path id="&lt;Path&gt;" class="s7" d="m844.2 159.9l9.8-15q-10.5-39.2 26.4-50.4c36.9-11.2 58.8 19.4 48.4 48.1-10.4 28.7-54.4 34.6-72.3 14.1z"/>
						</g>
					</g>
					<g id="&lt;Group&gt;">
						<g id="&lt;Group&gt;">
							<g id="&lt;Group&gt;">
								<path id="&lt;Path&gt;" class="s6" d="m882.5 142.6h10.4v5.8h-10.4z"/>
							</g>
						</g>
						<g id="&lt;Group&gt;">
							<g id="&lt;Group&gt;">
								<path id="&lt;Path&gt;" class="s6" d="m883.2 138.5v-11.4q5.2-0.5 5.7-3.5c0.5-3-2.8-3.8-5.1-1l-6.2-4.1q4.6-13.4 17-10.3c12.5 3.1 8.6 15.4 6.6 18q-2 2.6-8.7 5l-0.2 7.3z"/>
							</g>
						</g>
					</g>
				</g>
			</g>
		</g>
		<g id="&lt;Group&gt;">
			<g id="&lt;Group&gt;">
				<g id="&lt;Group&gt;">
					<path id="&lt;Path&gt;" class="s9" d="m392.3 813.1q-44.2 2.2-68.4-5c-44.4-14.7 10-31.5 58.1-35.1 48.1-3.5 132 2.5 148.7 7.7 16.8 5.2 42.5 16 36.6 21.2q-6 5.2-49.6 10.8-9 1.5-92.8 2.3z"/>
				</g>
			</g>
			<g id="&lt;Group&gt;">
				<g id="&lt;Group&gt;">
					<path id="&lt;Path&gt;" class="s2" d="m493.8 786.5l8.4 6.5q9.3 1.1 10.3 5.9c0.9 4.9-5.2 9-25.9 9.2-6.9 0.4-15.9-3.7-22.4-4.5-6.5-0.7-14-2.8-13-25.9 4.6-18.4 36.1 7.6 42.6 8.8z"/>
				</g>
				<g id="&lt;Group&gt;">
					<path id="&lt;Path&gt;" class="s2" d="m377.2 776.9q3.5 21.5-9.1 25.4c-11.4 4.8-15.9 6.3-18.7 8-2.8 1.7-22.4 1.2-27.6-2.2-5.2-3.4-2-11.4 6.4-12.9l13.1-11q33.8-19.1 35.9-7.3z"/>
				</g>
				<g id="&lt;Group&gt;">
					<path id="&lt;Path&gt;" class="s10" d="m399.4 612.8q-17 134.5-17.4 140.9c-0.4 6.3-3 21.6-5.9 25.1-3 3.6-10.9 10.8-23.7 14.2-12.9 3.3-16-1.3-15.5-5q16.2-12.9 18.8-23.5c2.7-10.7 4.3-147.6 4.3-161.1 0-13.5 37.4-2.6 39.4 9.4z"/>
				</g>
				<g id="&lt;Group&gt;">
					<path id="&lt;Path&gt;" class="s10" d="m457.1 605.4l22.3 168 14.4 13.1q-4.6 12.4-27 2.8-11.7-5.6-15.6-11.6-29.7-153.9-34.9-163.2c-5.2-9.4 37.5-14.1 40.8-9.1z"/>
				</g>
				<g id="&lt;Group&gt;">
					<path id="&lt;Path&gt;" class="s2" d="m447.2 459.8q-1.4 15.6 2.7 31.3 4.1 15.6 23.8 108.4-8.6 27.2-69.3 20.2-52.9-6.2-63.3-18.7 3.3-36.4 6.8-60.1c3.6-23.7 11.4-54.7 11.8-76.7 0.3-21.9 83.3-33.1 87.5-4.4z"/>
				</g>
			</g>
			<g id="&lt;Group&gt;">
				<path id="&lt;Path&gt;" class="s11" d="m341.8 369.8c2.5-7.4 10.4-39.5 16.1-67.6q5.7-28 16.4-30.3-1.8-9.4 4.6-5.8c32.6-24 58.8 6.2 59.2 26.5q0.4 20.3 4.5 58.3c-7.5 29.1-103.3 26.4-100.8 18.9z"/>
			</g>
			<g id="&lt;Group&gt;">
				<g id="&lt;Group&gt;">
					<path id="&lt;Path&gt;" class="s10" d="m413.6 337.3v26.7l-24.6 2.6 0.3-34.7q24.3-8 24.3 5.4z"/>
				</g>
				<g id="&lt;Group&gt;">
					<path id="&lt;Path&gt;" class="s10" d="m402.3 342.2q-24.9-1.1-28.5-31.6-6.1 1.4-8.2-5.1c-2.1-6.6 2.8-10.5 6.7-8.1q4 2.3 7.1 1.2-1.9-14.8 6-17.7 18.2 23.8 44 22.1c-0.2 10.5-2.1 40.3-27.1 39.2z"/>
				</g>
			</g>
			<g id="&lt;Group&gt;">
				<g id="&lt;Group&gt;">
					<path id="&lt;Path&gt;" class="s10" d="m491.2 420.6q17.2-17.1 36-34.1c6.3-6.7 10.4-16 25.9-15.8 15.5 0.2 22.6 0 27.6-1.3 5-1.3 9.9-1.7 9.9 1.3 0 3-20.5 9.5-31.3 11.4q-1.7-0.2-3.4 0-33.7 45.6-45.1 57.5c-11.4 12-21.2 11.4-29.3 0q-8-11.3 9.7-19z"/>
				</g>
				<g id="&lt;Group&gt;">
					<path id="&lt;Path&gt;" class="s10" d="m333 448.2c-6.1 10.1-12.9 11.4-23.7 8-10.8-3.3-39.3-45.8-46.4-57.2-7-11.4-14.9-12.1-30.5-16.4-15.7-4.3-9.2-10.4-6.4-9.9 2.8 0.6 15.9 0 20.7 0 4.9 0 18.1 0.6 20.3 3.2q2.3 2.6 44.3 44.6 27.9 17.7 21.7 27.7z"/>
				</g>
				<g id="&lt;Group&gt;">
					<path id="&lt;Path&gt;" class="s8" d="m481.7 447.3l-5.4-4.7c3-11.2 10.6-32.9 12.6-38.6q0.1 0.2 0.2 0.4l7.5 4.7q-1.3 13.9-14.9 38.2z"/>
				</g>
				<g id="&lt;Group&gt;">
					<path id="&lt;Path&gt;" class="s6" d="m476.3 442.6l-24-21q2.6 26.8-1 38c-13.2 19.9-52.1 15.1-78.8 13.2-26.6-1.8-23.1-11-23.1-15.8q0-4.9-1.1-24.1c-1.8 4.5-4.7 8.8-7.2 12-14-9.4-22.5-30.5-25.2-38.1 10.4-12.5 23.2-37.9 28.1-44.1 6-7.7 12.9-15.7 21.1-14.7q8.3 0.9 24 6.1v2.1q5.2 5.5 13.8 5.7 8.6 0.2 10.6-5.6c1.9-0.1 27.6-11.7 34.5-5.6 8.7 7 38 49.2 40.9 53.3-2 5.7-9.6 27.4-12.6 38.6z"/>
				</g>
				<g id="&lt;Group&gt;">
					<path id="&lt;Path&gt;" class="s8" d="m341.1 444.9q-2.5 3.2-4.6 5.4l-0.5 3.1q-20.9-9.7-26.7-40.4c2-1.2 4.2-3.3 6.6-6.2 2.7 7.6 11.2 28.7 25.2 38.1z"/>
				</g>
				<g id="&lt;Group&gt;">
					<path id="&lt;Path&gt;" class="s12" d="m452.3 422.6q-0.3 0-0.6-0.2l-9.6-7.3-0.1-0.4c-3.9-36.2 6.2-53.2 6.6-53.9 0.3-0.4 0.9-0.6 1.4-0.3 0.5 0.3 0.6 0.9 0.3 1.4-0.1 0.2-10.1 17-6.3 52.1l8.9 6.8c0.4 0.3 0.5 0.9 0.2 1.4-0.2 0.2-0.5 0.4-0.8 0.4z"/>
				</g>
				<g id="&lt;Group&gt;">
					<path id="&lt;Path&gt;" class="s12" d="m405.8 372.6c-5 0-13.9-1-18.4-7.3-0.4-0.4-0.3-1.1 0.2-1.4 0.4-0.3 1.1-0.2 1.4 0.2 5.7 8 20.1 6.4 20.3 6.3 0.5 0 1 0.4 1.1 0.9 0.1 0.6-0.3 1.1-0.9 1.1-0.1 0.1-1.6 0.2-3.7 0.2z"/>
				</g>
				<g id="&lt;Group&gt;">
					<path id="&lt;Path&gt;" class="s12" d="m363.6 401.5q-0.1 0-0.2 0c-0.5-0.1-0.9-0.6-0.8-1.2 3.6-22.2-7.4-39.3-7.5-39.5-0.3-0.5-0.2-1.1 0.3-1.4 0.4-0.3 1.1-0.2 1.4 0.3 0.4 0.7 11.5 17.9 7.8 41-0.1 0.5-0.5 0.8-1 0.8z"/>
				</g>
				<g id="&lt;Group&gt;">
					<path id="&lt;Path&gt;" class="s12" d="m347.9 435.4q-0.2 0-0.5-0.1c-0.5-0.3-0.6-0.9-0.4-1.4l5.6-10c0.3-0.5 0.9-0.7 1.4-0.4 0.5 0.3 0.7 0.9 0.4 1.3l-5.6 10.1c-0.2 0.3-0.5 0.5-0.9 0.5z"/>
				</g>
				<g id="&lt;Group&gt;">
					<path id="&lt;Path&gt;" class="s11" d="m459.4 335.7l20.1 1.8-5.8 8.2-15.2-6.8z"/>
				</g>
				<g id="&lt;Group&gt;">
					<path id="&lt;Path&gt;" class="s11" d="m454.9 329.5l11.6-15.3 5.9 8q-14 10.3-14.7 10.3z"/>
				</g>
				<g id="&lt;Group&gt;">
					<path id="&lt;Path&gt;" class="s11" d="m321.1 332.5l8.4-6.9 7.8 20.1h-3.4z"/>
				</g>
				<g id="&lt;Group&gt;">
					<path id="&lt;Path&gt;" class="s11" d="m330.2 353.7l-16.9 6.6q-5.5-3.2-2.8-10.5h19.7z"/>
				</g>
			</g>
		</g>
		<g id="&lt;Group&gt;">
			<g id="&lt;Group&gt;">
				<g id="&lt;Group&gt;">
					<path id="&lt;Path&gt;" class="s9" d="m914.3 777.7q15.3 1.7 15.3 7c0 5.3-23.5 12.8-99.2 13.5-75.7 0.7-176.3 5.6-167.2-10.2q9.1-15.9 70.7-22.6 43.1 4.8 62.2 5.6c19 0.7 109.2 1.1 118.2 6.7z"/>
				</g>
			</g>
			<g id="&lt;Group&gt;">
				<g id="&lt;Group&gt;">
					<g id="&lt;Group&gt;">
						<g id="&lt;Group&gt;">
							<path id="&lt;Path&gt;" class="s2" d="m882 747.3q3.9 10.5 19.3 13c15.5 2.6 20.9 8.8 18.9 17.5-2 4.3-17.9 6-34.1 6.2-16.1 0.3-43.1 4-45.4-8.9q-0.5-3.2 2.8-29.1 32.5-10.7 38.5 1.3z"/>
						</g>
					</g>
					<g id="&lt;Group&gt;">
						<g id="&lt;Group&gt;">
							<path id="&lt;Path&gt;" class="s2" d="m748 758.9q0 17.2-2.2 23.2c-2.2 5.9-6 9.9-27.1 9.4-21.1-0.5-43.5 1.7-50.7-2.5-7.2-4.2-8.7-14.9 12-19.1 20.6-4.2 25.5-4.2 33.7-23.4 8.2-19.1 33.3 4.5 34.3 12.4z"/>
						</g>
					</g>
					<g id="&lt;Group&gt;">
						<g id="&lt;Group&gt;">
							<path id="&lt;Path&gt;" class="s2" d="m852.4 420.4q11.2 123.4 17.1 173.6c1.8 20.1 18.7 143.1 16.4 154.6q-25.7 19.4-55.9 0.4-33.1-251.6-34.3-254.9c-1.1-3.4-5.2-15.3-7-0.8-1.9 14.6-23 244.3-29 260.2q-0.9 7.4-18.3 6.8c-17.3-0.6-37.3-5.6-39.5-5q11.2-138 16.1-253.8c4.9-115.8 1.5-171.6 134.4-81.1z"/>
						</g>
					</g>
				</g>
				<g id="&lt;Group&gt;">
					<g id="&lt;Group&gt;">
						<path id="&lt;Path&gt;" class="s10" d="m925 411.6q5.4 2.4 10.1 11.1c4.8 8.7 6.2 12.5 8.2 13q0.5 7.5-9.2 4.3-1.4 6.4-11.8 10.1c-10.5 3.7-26.1 8.7-22.4-33q22.1-7.6 25.1-5.5z"/>
					</g>
				</g>
				<g id="&lt;Group&gt;">
					<g id="&lt;Group&gt;">
						<path id="&lt;Path&gt;" class="s10" d="m695.1 174.6c3.7-30.5 14.2-32.6 25-27.7q10.8 4.8 10.4 11.3c3.6-3.1 17-1.5 8.6 4.1q-8.4 5.6-22 22.6c-13.4 6.7-27 16.4-22-10.3z"/>
					</g>
				</g>
				<g id="&lt;Group&gt;">
					<g id="&lt;Group&gt;">
						<path id="&lt;Path&gt;" class="s8" d="m855.2 403.2q3 14.2 0 19.7c-3 5.4-68.6 18.7-136.2 2.8-5.5-2.2 0-19.1 0-26.3 0-7.2 132.7-2.4 136.2 3.8z"/>
					</g>
				</g>
				<g id="&lt;Group&gt;">
					<g id="&lt;Group&gt;">
						<path id="&lt;Path&gt;" class="s8" d="m783.4 216q23.5-2.5 38.7-1.5c15.1 1 38.9 2.6 48.2 25.7q9.3 23.1 58.5 165.5-5.6 21.3-32.4 12.7l-37.3-88.3q9.9 59.1-6 77-25.3 23.4-126.7 6.5-17.9-11.5-15.9-26.4 2-14.9 7.5-106-35.8 18.1-50.7 21.5c-14.9 3.5-38.8-6.4-22.9-43.7q15.9-37.3 44.2-89.5 25.1 2 30.6 18.4l-32.5 64.1q29.3-30.4 52.4-33.8 6.8-0.9 44.3-2.2z"/>
					</g>
				</g>
				<g id="&lt;Group&gt;">
					<g id="&lt;Group&gt;">
						<path id="&lt;Path&gt;" class="s13" d="m858.6 330.8c-0.7 0-1.4-0.5-1.5-1.3l-9.2-60.3c-0.1-0.9 0.5-1.6 1.3-1.7 0.8-0.2 1.6 0.4 1.7 1.2l9.2 60.4c0.1 0.8-0.4 1.6-1.3 1.7q-0.1 0-0.2 0z"/>
					</g>
				</g>
				<g id="&lt;Group&gt;">
					<g id="&lt;Group&gt;">
						<path id="&lt;Path&gt;" class="s13" d="m784 241.4c-3.9 0-8.2-0.7-12.2-2.4-6-2.8-10.4-7.7-13-14.8-0.3-0.7 0.1-1.6 0.9-1.9 0.8-0.3 1.6 0.1 1.9 0.9 2.3 6.3 6.2 10.6 11.4 13 11.2 5 25.3-0.4 25.5-0.5 0.7-0.3 1.6 0.1 1.9 0.9 0.3 0.8-0.1 1.6-0.8 1.9-0.5 0.2-7.4 2.9-15.6 2.9z"/>
					</g>
				</g>
				<g id="&lt;Group&gt;">
					<g id="&lt;Group&gt;">
						<path id="&lt;Path&gt;" class="s13" d="m680.4 272.3c-0.6 0-1.2-0.3-1.4-0.9-3.9-9.4 6.9-21.4 7.4-21.9 0.5-0.6 1.5-0.7 2.1-0.1 0.6 0.5 0.6 1.5 0.1 2.1-0.1 0.1-10 11.1-6.8 18.7 0.3 0.8-0.1 1.7-0.8 2q-0.3 0.1-0.6 0.1z"/>
					</g>
				</g>
				<g id="&lt;Group&gt;">
					<g id="&lt;Group&gt;">
						<path id="&lt;Path&gt;" class="s13" d="m835.6 429.8c-0.8 0-1.5-0.7-1.5-1.5v-13.7c0-0.9 0.7-1.5 1.5-1.5 0.9 0 1.5 0.6 1.5 1.5v13.7c0 0.8-0.6 1.5-1.5 1.5z"/>
					</g>
				</g>
				<g id="&lt;Group&gt;">
					<g id="&lt;Group&gt;">
						<path id="&lt;Path&gt;" class="s13" d="m808.2 433.2c-0.8 0-1.5-0.6-1.5-1.4l-0.8-13.1c0-0.8 0.6-1.5 1.4-1.6 0.9 0 1.6 0.6 1.6 1.5l0.8 13c0 0.8-0.6 1.5-1.4 1.6q-0.1 0-0.1 0z"/>
					</g>
				</g>
				<g id="&lt;Group&gt;">
					<g id="&lt;Group&gt;">
						<path id="&lt;Path&gt;" class="s13" d="m781 433.2c-0.8 0-1.5-0.7-1.5-1.5v-13c0-0.9 0.7-1.5 1.5-1.5 0.8 0 1.5 0.6 1.5 1.5v13c0 0.8-0.7 1.5-1.5 1.5z"/>
					</g>
				</g>
				<g id="&lt;Group&gt;">
					<g id="&lt;Group&gt;">
						<path id="&lt;Path&gt;" class="s13" d="m755.5 432.2c-0.8 0-1.5-0.7-1.5-1.5v-13.5c0-0.9 0.7-1.5 1.5-1.5 0.8 0 1.5 0.6 1.5 1.5v13.5c0 0.8-0.7 1.5-1.5 1.5z"/>
					</g>
				</g>
				<g id="&lt;Group&gt;">
					<g id="&lt;Group&gt;">
						<path id="&lt;Path&gt;" class="s13" d="m729.8 428.5c-0.9 0-1.5-0.7-1.5-1.5v-12.2c0-0.9 0.6-1.5 1.5-1.5 0.8 0 1.5 0.6 1.5 1.5v12.2c0 0.8-0.7 1.5-1.5 1.5z"/>
					</g>
				</g>
				<g id="&lt;Group&gt;">
					<g id="&lt;Group&gt;">
						<path id="&lt;Path&gt;" class="s13" d="m797.8 420.2q-1.7 0-3.6-0.1c-51.5-0.6-74-4.1-77.6-12.1-0.3-0.7 0-1.6 0.8-2 0.7-0.3 1.6 0 2 0.8 4.2 9.4 57.4 10.1 74.9 10.3 45.7 0.7 56.9-10.6 57-10.7 0.6-0.6 1.5-0.6 2.1-0.1 0.6 0.6 0.7 1.5 0.1 2.1-0.4 0.5-11.2 11.8-55.7 11.8z"/>
					</g>
				</g>
				<g id="&lt;Group&gt;">
					<g id="&lt;Group&gt;">
						<path id="&lt;Path&gt;" class="s14" d="m936.4 441.3q-0.2 0-0.5-0.1c-5.3-3-8.8-13.4-8.9-13.9-0.1-0.4-0.5-2.5-4-2.7q-0.8-0.1-1.3 0.7c-0.8 1.4-0.7 5.8 4.4 13 0.3 0.5 0.2 1.1-0.3 1.4-0.4 0.3-1 0.2-1.4-0.2-5.3-7.5-5.8-12.8-4.4-15.2 0.6-1.2 1.8-1.8 3.1-1.7 4.2 0.2 5.7 2.9 5.8 4.3q0 0 0 0c0.1 0 3.4 10 8 12.6 0.5 0.2 0.7 0.8 0.4 1.3-0.2 0.3-0.5 0.5-0.9 0.5z"/>
					</g>
				</g>
				<g id="&lt;Group&gt;">
					<g id="&lt;Group&gt;">
						<path id="&lt;Path&gt;" class="s14" d="m903.8 449.7c-0.4 0-0.7-0.2-0.9-0.6-0.5-1.2-4.6-11.4-1.8-15.5 0.5-0.8 1.5-1.7 3.4-1.7 2.5 0 3.5 2.9 4.2 4.9q0.1 0.4 0.3 0.8c0.1 0.5-0.1 1.1-0.6 1.3-0.6 0.2-1.1-0.1-1.3-0.6q-0.2-0.4-0.3-0.9c-0.5-1.4-1.2-3.5-2.3-3.5-1.1 0-1.5 0.5-1.8 0.8-1.6 2.4 0.4 9.6 2 13.6 0.3 0.5 0 1.1-0.5 1.3q-0.2 0.1-0.4 0.1z"/>
					</g>
				</g>
				<g id="&lt;Group&gt;">
					<g id="&lt;Group&gt;">
						<path id="&lt;Path&gt;" class="s14" d="m910.8 445.8c-0.4 0-0.8-0.2-0.9-0.6-1.6-3.4-6.3-14.7-2.4-17.1q1.7-1 3.3-0.4c1.6 0.6 2.9 2.3 3.8 5.2 0.2 0.6-0.1 1.1-0.6 1.3-0.6 0.2-1.1-0.1-1.3-0.7-1-3-2-3.8-2.6-4-0.4-0.1-0.9 0-1.6 0.3-1.6 1 0.4 8.4 3.2 14.6 0.2 0.5 0 1.1-0.5 1.3q-0.2 0.1-0.4 0.1z"/>
					</g>
				</g>
				<g id="&lt;Group&gt;">
					<g id="&lt;Group&gt;">
						<path id="&lt;Path&gt;" class="s14" d="m917.4 442.7c-0.4 0-0.7-0.2-0.9-0.5-0.6-1.1-6.2-11.2-4.5-16.3q0.6-1.8 2.3-2.5c1.6-0.5 2.9-0.3 4.1 0.4 2.6 1.6 3.3 5.6 3.3 5.8 0.1 0.5-0.3 1.1-0.8 1.2-0.6 0-1.1-0.3-1.2-0.9-0.1-0.9-0.9-3.5-2.4-4.4q-1-0.6-2.3-0.3-0.7 0.4-1.1 1.4c-1.2 3.6 2.7 11.8 4.4 14.6 0.2 0.5 0.1 1.1-0.4 1.4q-0.3 0.1-0.5 0.1z"/>
					</g>
				</g>
				<g id="&lt;Group&gt;">
					<g id="&lt;Group&gt;">
						<path id="&lt;Path&gt;" class="s14" d="m719.8 170.5c-0.8 0-1.6-0.2-2.2-0.8-1.2-1.1-1.5-3-0.6-4.9 1.5-3.3 4.6-8.3 4.7-8.6 0.3-0.4 0.9-0.6 1.4-0.3 0.5 0.3 0.6 0.9 0.3 1.4 0 0-3.1 5.1-4.6 8.3-0.5 1.1-0.4 2.1 0.1 2.6 0.6 0.5 1.6 0.4 2.7-0.3 2.4-1.6 6.6-7.9 8.1-10.2 0.3-0.5 0.9-0.6 1.3-0.3 0.5 0.3 0.7 0.9 0.4 1.4-0.3 0.3-5.4 8.7-8.7 10.8-1 0.6-2 0.9-2.9 0.9z"/>
					</g>
				</g>
				<g id="&lt;Group&gt;">
					<g id="&lt;Group&gt;">
						<path id="&lt;Path&gt;" class="s14" d="m712.6 168.5q-1.3 0-2.7-0.8-1-0.6-1.2-2.1c-0.4-3.6 2.7-11.1 6-14.3 0.3-0.4 1-0.4 1.4 0 0.4 0.4 0.4 1 0 1.4-2.8 2.8-5.7 9.7-5.4 12.6 0.1 0.4 0.2 0.7 0.3 0.7q1.2 0.7 2.4 0.4c2.4-0.6 4.2-3.7 4.3-3.8 0.2-0.4 0.8-0.6 1.3-0.3 0.5 0.2 0.7 0.9 0.4 1.3-0.1 0.2-2.3 3.9-5.5 4.8q-0.6 0.1-1.3 0.1z"/>
					</g>
				</g>
				<g id="&lt;Group&gt;">
					<g id="&lt;Group&gt;">
						<path id="&lt;Path&gt;" class="s14" d="m708.3 164.1c-1.2 0-2.8-0.2-3.8-1.2-0.5-0.6-1.1-1.6-0.8-3.4 0.8-4.5 4.9-9.5 5-9.7 0.4-0.5 1-0.5 1.4-0.2 0.5 0.4 0.5 1 0.2 1.4 0 0.1-3.9 4.9-4.6 8.9-0.2 1.1 0.1 1.5 0.2 1.6 0.8 0.8 2.8 0.7 3.5 0.6 0.5-0.1 1 0.2 1.1 0.8 0.1 0.5-0.3 1-0.8 1.1-0.1 0.1-0.7 0.1-1.4 0.1z"/>
					</g>
				</g>
				<g id="&lt;Group&gt;">
					<g id="&lt;Group&gt;">
						<path id="&lt;Path&gt;" class="s14" d="m702.1 160c-0.8 0-1.5-0.2-2.1-0.8-1.5-1.6-0.8-4.7 2-10 0.3-0.5 0.9-0.7 1.3-0.4 0.5 0.2 0.7 0.8 0.5 1.3-3.4 6.3-2.5 7.5-2.4 7.7 0.5 0.4 2.1 0 3-0.5 0.5-0.2 1.1 0 1.4 0.5 0.2 0.5 0 1.1-0.5 1.3-0.2 0.2-1.7 0.9-3.2 0.9z"/>
					</g>
				</g>
				<g id="&lt;Group&gt;">
					<g id="&lt;Group&gt;">
						<path id="&lt;Path&gt;" class="s13" d="m718 282.7c-0.5 0-0.9-0.2-1.2-0.6-0.5-0.6-0.4-1.6 0.3-2.1l7.4-5.3c0.7-0.5 1.7-0.4 2.1 0.3 0.5 0.7 0.4 1.6-0.3 2.1l-7.4 5.4q-0.4 0.3-0.9 0.2z"/>
					</g>
				</g>
			</g>
			<g id="&lt;Group&gt;">
				<g id="&lt;Group&gt;">
					<g id="&lt;Group&gt;">
						<path id="&lt;Path&gt;" class="s10" d="m797.2 196.5v18.9q4 5.3 0 9.6c-3.9 4.2-18.9 5.9-26.1-1q-5.2-5.4-2.8-8.2v-19.9q26.8-2.5 28.9 0.6z"/>
					</g>
				</g>
				<g id="&lt;Group&gt;">
					<g id="&lt;Group&gt;">
						<path id="&lt;Path&gt;" class="s10" d="m815.1 139q1.9 26.1 0 38.1c-1.8 11.9-4.4 24.7-32.6 24.7-28.1 0-29.6-9.1-35.2-33.5q-9 3.2-10.6-7.3-2.3-14 8.1-13.1 7.1-25.1 13.9-27.3c6.7-2.2 25.5-3.2 27.4-2.2q1.8 0.9 29 20.6z"/>
					</g>
				</g>
				<g id="&lt;Group&gt;">
					<g id="&lt;Group&gt;">
						<path id="&lt;Path&gt;" class="s11" d="m825.1 128.3q2.7 18.1-20.9 11.9c-23.6-6.2-4-21.1-44.5-15.6-6.2 1.7-4.2 10.4-4.2 14.4 0 4-2 14.6-15.9 10.4q-3.3-4.9-4.5-7.2c-1.1-2-8.7-23.3 16.9-27.3q-1.5-5.1 0.5-5.7 2.1-0.5 3.9 5.6 4.4-18.7 36-14.7c15.4 1.9 17.1 29.1 32.7 28.2z"/>
					</g>
				</g>
			</g>
		</g>
	</g>
</svg>